<svg width="972" height="398" viewBox="0 0 972 398" fill="none" xmlns="http://www.w3.org/2000/svg">
<rect width="972" height="398" fill="#E5E5E5"/>
<rect width="972" height="398" fill="url(#paint0_linear)"/>
<path fill-rule="evenodd" clip-rule="evenodd" d="M443.31 104.03C436.485 104.03 428.386 105.477 419.536 115.737V87.0232C419.536 79.7695 413.648 73.8689 406.411 73.8689C399.174 73.8689 393.287 79.7695 393.287 87.0232V180.664C393.287 187.917 399.174 193.818 406.411 193.818C413.648 193.818 419.536 187.917 419.536 180.664V144.32C419.536 133.872 424.486 128.102 433.504 128.102C442.335 128.102 446.985 133.702 446.985 144.32V180.664C446.985 187.917 452.872 193.818 460.11 193.818C467.347 193.818 473.234 187.917 473.234 180.664V136.69C473.216 116.245 462.041 104.03 443.31 104.03ZM518.684 104.669C507.997 104.669 499.522 106.06 491.216 109.179C486.904 110.795 484.017 114.967 484.017 119.552C484.017 125.679 488.873 130.471 495.079 130.471C496.354 130.471 497.423 130.283 498.885 129.794C503.929 128.216 509.253 127.464 515.197 127.464C529.297 127.464 532.297 135.263 532.334 141.859C527.44 140.261 521.272 138.795 512.666 138.795C490.241 138.795 477.379 149.075 477.379 167.021V167.34C477.379 183.558 489.529 194.457 507.603 194.457C517.784 194.457 525.94 191.357 532.447 185.005C533.553 189.647 537.996 193.837 544.821 193.837C552.002 193.837 557.627 188.275 557.627 181.171V142.404C557.627 130.208 554.44 120.812 548.121 114.497C541.596 107.977 531.697 104.669 518.684 104.669ZM514.878 175.609C507.435 175.609 502.822 172.076 502.822 166.382V166.063C502.822 159.279 508.485 155.408 518.366 155.408C523.428 155.408 528.472 156.404 532.653 158.208V161.797C532.653 169.915 525.34 175.609 514.878 175.609ZM592.801 115.964C599.588 107.94 607.95 104.031 618.3 104.031C638.043 104.031 658.011 119.497 658.011 149.075V149.395C658.011 163.019 653.83 174.557 645.937 182.788C638.718 190.324 628.912 194.458 618.3 194.458C608.081 194.458 599.963 190.963 592.932 183.521V206.071C592.932 213.325 587.044 219.226 579.807 219.226C572.57 219.226 566.683 213.325 566.683 206.071V117.824C566.683 110.571 572.57 104.67 579.807 104.67C586.426 104.67 591.901 109.593 592.801 115.964ZM631.781 149.075C631.781 136.316 623.325 126.675 612.113 126.675C600.825 126.675 592.613 136.09 592.613 149.075V149.395C592.613 162.38 600.807 171.795 612.113 171.795C623.512 171.795 631.781 162.38 631.781 149.395V149.075ZM715.684 104.031C705.335 104.031 696.972 107.94 690.185 115.964C689.285 109.593 683.81 104.67 677.192 104.67C669.954 104.67 664.067 110.571 664.067 117.824V206.071C664.067 213.325 669.954 219.226 677.192 219.226C684.429 219.226 690.316 213.325 690.316 206.071V183.521C697.347 190.963 705.466 194.458 715.684 194.458C726.297 194.458 736.103 190.324 743.321 182.788C751.215 174.557 755.396 163.019 755.396 149.395V149.075C755.396 119.497 735.428 104.031 715.684 104.031ZM709.497 126.675C720.709 126.675 729.165 136.316 729.165 149.075V149.395C729.165 162.38 720.897 171.795 709.497 171.795C698.191 171.795 689.998 162.38 689.998 149.395V149.075C689.998 136.09 698.21 126.675 709.497 126.675ZM813.951 114.592C816.388 108.09 820.738 104.669 826.532 104.669C833.525 104.669 839.019 110.025 839 116.828C839 118.801 838.362 121.657 837.8 122.973L808.195 194.232C800.751 212.291 792.989 218.699 778.533 218.699C773.433 218.699 769.514 218.023 765.014 216.407C761.921 215.279 756.708 212.347 756.708 205.394C756.708 198.554 762.09 194.476 767.283 194.476C769.346 194.476 770.583 194.833 771.577 195.172C773.62 195.811 774.745 196.074 776.302 196.074C780.239 196.074 781.889 195.435 783.876 191.62L784.476 190.192L755.677 123.311C755.021 121.657 754.327 119.102 754.327 117.316C754.327 110.1 759.896 104.651 767.283 104.651C773.377 104.651 777.502 107.845 779.864 114.422L797.207 161.158L813.951 114.592Z" fill="white"/>
<path fill-rule="evenodd" clip-rule="evenodd" d="M443.31 104.03C436.485 104.03 428.386 105.477 419.536 115.737V87.0232C419.536 79.7695 413.648 73.8689 406.411 73.8689C399.174 73.8689 393.287 79.7695 393.287 87.0232V180.664C393.287 187.917 399.174 193.818 406.411 193.818C413.648 193.818 419.536 187.917 419.536 180.664V144.32C419.536 133.872 424.486 128.102 433.504 128.102C442.335 128.102 446.985 133.702 446.985 144.32V180.664C446.985 187.917 452.872 193.818 460.11 193.818C467.347 193.818 473.234 187.917 473.234 180.664V136.69C473.216 116.245 462.041 104.03 443.31 104.03ZM518.684 104.669C507.997 104.669 499.522 106.06 491.216 109.179C486.904 110.795 484.017 114.967 484.017 119.552C484.017 125.679 488.873 130.471 495.079 130.471C496.354 130.471 497.423 130.283 498.885 129.794C503.929 128.216 509.253 127.464 515.197 127.464C529.297 127.464 532.297 135.263 532.334 141.859C527.44 140.261 521.272 138.795 512.666 138.795C490.241 138.795 477.379 149.075 477.379 167.021V167.34C477.379 183.558 489.529 194.457 507.603 194.457C517.784 194.457 525.94 191.357 532.447 185.005C533.553 189.647 537.996 193.837 544.821 193.837C552.002 193.837 557.627 188.275 557.627 181.171V142.404C557.627 130.208 554.44 120.812 548.121 114.497C541.596 107.977 531.697 104.669 518.684 104.669ZM514.878 175.609C507.435 175.609 502.822 172.076 502.822 166.382V166.063C502.822 159.279 508.485 155.408 518.366 155.408C523.428 155.408 528.472 156.404 532.653 158.208V161.797C532.653 169.915 525.34 175.609 514.878 175.609ZM592.801 115.964C599.588 107.94 607.95 104.031 618.3 104.031C638.043 104.031 658.011 119.497 658.011 149.075V149.395C658.011 163.019 653.83 174.557 645.937 182.788C638.718 190.324 628.912 194.458 618.3 194.458C608.081 194.458 599.963 190.963 592.932 183.521V206.071C592.932 213.325 587.044 219.226 579.807 219.226C572.57 219.226 566.683 213.325 566.683 206.071V117.824C566.683 110.571 572.57 104.67 579.807 104.67C586.426 104.67 591.901 109.593 592.801 115.964ZM631.781 149.075C631.781 136.316 623.325 126.675 612.113 126.675C600.825 126.675 592.613 136.09 592.613 149.075V149.395C592.613 162.38 600.807 171.795 612.113 171.795C623.512 171.795 631.781 162.38 631.781 149.395V149.075ZM715.684 104.031C705.335 104.031 696.972 107.94 690.185 115.964C689.285 109.593 683.81 104.67 677.192 104.67C669.954 104.67 664.067 110.571 664.067 117.824V206.071C664.067 213.325 669.954 219.226 677.192 219.226C684.429 219.226 690.316 213.325 690.316 206.071V183.521C697.347 190.963 705.466 194.458 715.684 194.458C726.297 194.458 736.103 190.324 743.321 182.788C751.215 174.557 755.396 163.019 755.396 149.395V149.075C755.396 119.497 735.428 104.031 715.684 104.031ZM709.497 126.675C720.709 126.675 729.165 136.316 729.165 149.075V149.395C729.165 162.38 720.897 171.795 709.497 171.795C698.191 171.795 689.998 162.38 689.998 149.395V149.075C689.998 136.09 698.21 126.675 709.497 126.675ZM813.951 114.592C816.388 108.09 820.738 104.669 826.532 104.669C833.525 104.669 839.019 110.025 839 116.828C839 118.801 838.362 121.657 837.8 122.973L808.195 194.232C800.751 212.291 792.989 218.699 778.533 218.699C773.433 218.699 769.514 218.023 765.014 216.407C761.921 215.279 756.708 212.347 756.708 205.394C756.708 198.554 762.09 194.476 767.283 194.476C769.346 194.476 770.583 194.833 771.577 195.172C773.62 195.811 774.745 196.074 776.302 196.074C780.239 196.074 781.889 195.435 783.876 191.62L784.476 190.192L755.677 123.311C755.021 121.657 754.327 119.102 754.327 117.316C754.327 110.1 759.896 104.651 767.283 104.651C773.377 104.651 777.502 107.845 779.864 114.422L797.207 161.158L813.951 114.592Z" fill="white"/>
<path d="M321.19 92.2403V169.104C321.19 199.611 296.362 224.344 265.739 224.344H260.13L231.488 252.858C230.367 253.976 228.815 254.683 227.095 254.683C225.506 254.683 224.066 254.106 222.963 253.137L222.477 252.653L222.458 252.635L194.06 224.344H188.432C157.828 224.344 133 199.611 133 169.104V92.2403C133 61.7334 157.828 37 188.451 37H265.739C296.362 37 321.19 61.7334 321.19 92.2403Z" fill="#FFD666"/>
<path d="M176.816 143.479C171.357 143.479 168.245 149.677 171.413 154.151C183.729 171.582 204.093 182.946 227.104 182.946C250.115 182.946 270.461 171.563 282.776 154.151C285.944 149.677 282.832 143.479 277.373 143.479H176.816Z" fill="white"/>
<path d="M208.789 117.101H175.848V100.551C175.848 91.4141 183.226 84.0001 192.318 84.0001C201.411 84.0001 208.789 91.4141 208.789 100.551V117.101Z" fill="white"/>
<path d="M278.362 117.101H245.42V100.551C245.42 91.4141 252.799 84.0001 261.891 84.0001C270.984 84.0001 278.362 91.4141 278.362 100.551V117.101Z" fill="white"/>
<path d="M321.19 92.2403V169.104C321.19 199.611 296.362 224.344 265.739 224.344H260.13L231.488 252.858C230.367 253.976 228.815 254.683 227.095 254.683C225.506 254.683 224.066 254.106 222.963 253.137L222.477 252.653L222.458 252.635L194.06 224.344H188.432C157.828 224.344 133 199.611 133 169.104V92.2403C133 61.7334 157.828 37 188.451 37H265.739C296.362 37 321.19 61.7334 321.19 92.2403Z" fill="#FFD666"/>
<path d="M176.816 143.479C171.357 143.479 168.245 149.677 171.413 154.151C183.729 171.582 204.093 182.946 227.104 182.946C250.115 182.946 270.461 171.563 282.776 154.151C285.944 149.677 282.832 143.479 277.373 143.479H176.816Z" fill="white"/>
<path d="M208.789 117.101H175.848V100.551C175.848 91.4141 183.226 84.0001 192.318 84.0001C201.411 84.0001 208.789 91.4141 208.789 100.551V117.101Z" fill="white"/>
<path d="M278.362 117.101H245.42V100.551C245.42 91.4141 252.799 84.0001 261.891 84.0001C270.984 84.0001 278.362 91.4141 278.362 100.551V117.101Z" fill="white"/>
<path d="M238.858 332.464C238.938 332.288 239.05 332.152 239.194 332.056C239.354 331.96 239.522 331.912 239.698 331.912C239.954 331.912 240.178 332 240.37 332.176C240.578 332.336 240.682 332.536 240.682 332.776C240.682 332.904 240.65 333.032 240.586 333.16L233.698 348.472C233.602 348.68 233.458 348.84 233.266 348.952C233.074 349.064 232.866 349.12 232.642 349.12C232.418 349.12 232.21 349.064 232.018 348.952C231.826 348.84 231.682 348.68 231.586 348.472L224.722 333.16C224.674 333.032 224.65 332.912 224.65 332.8C224.65 332.544 224.754 332.336 224.962 332.176C225.17 332 225.402 331.912 225.658 331.912C226.042 331.912 226.322 332.096 226.498 332.464L232.69 346.456L238.858 332.464ZM245.052 349.12C244.764 349.12 244.524 349.04 244.332 348.88C244.156 348.704 244.068 348.464 244.068 348.16V338.032C244.068 337.728 244.156 337.496 244.332 337.336C244.524 337.16 244.764 337.072 245.052 337.072C245.34 337.072 245.572 337.16 245.748 337.336C245.924 337.496 246.012 337.728 246.012 338.032V348.16C246.012 348.48 245.924 348.72 245.748 348.88C245.572 349.04 245.34 349.12 245.052 349.12ZM245.052 334.552C244.668 334.552 244.356 334.44 244.116 334.216C243.876 333.992 243.756 333.696 243.756 333.328C243.756 332.976 243.876 332.688 244.116 332.464C244.356 332.24 244.668 332.128 245.052 332.128C245.436 332.128 245.748 332.24 245.988 332.464C246.228 332.688 246.348 332.976 246.348 333.328C246.348 333.696 246.228 333.992 245.988 334.216C245.748 334.44 245.436 334.552 245.052 334.552ZM253.582 349.168C252.846 349.168 252.142 349.08 251.47 348.904C250.814 348.728 250.23 348.48 249.718 348.16C249.43 347.968 249.222 347.792 249.094 347.632C248.982 347.456 248.926 347.248 248.926 347.008C248.926 346.8 248.982 346.632 249.094 346.504C249.222 346.36 249.382 346.288 249.574 346.288C249.766 346.288 250.046 346.408 250.414 346.648C250.894 346.936 251.366 347.168 251.83 347.344C252.31 347.504 252.902 347.584 253.606 347.584C254.47 347.584 255.142 347.432 255.622 347.128C256.102 346.824 256.342 346.384 256.342 345.808C256.342 345.456 256.254 345.176 256.078 344.968C255.902 344.744 255.598 344.552 255.166 344.392C254.734 344.216 254.102 344.04 253.27 343.864C251.862 343.56 250.854 343.152 250.246 342.64C249.638 342.128 249.334 341.432 249.334 340.552C249.334 339.864 249.526 339.256 249.91 338.728C250.294 338.2 250.822 337.784 251.494 337.48C252.182 337.176 252.958 337.024 253.822 337.024C254.446 337.024 255.046 337.112 255.622 337.288C256.214 337.448 256.734 337.68 257.182 337.984C257.726 338.368 257.998 338.768 257.998 339.184C257.998 339.392 257.934 339.568 257.806 339.712C257.678 339.856 257.526 339.928 257.35 339.928C257.158 339.928 256.87 339.792 256.486 339.52C256.038 339.232 255.614 339.008 255.214 338.848C254.814 338.688 254.318 338.608 253.726 338.608C252.974 338.608 252.366 338.776 251.902 339.112C251.454 339.448 251.23 339.896 251.23 340.456C251.23 340.808 251.31 341.096 251.47 341.32C251.646 341.528 251.926 341.72 252.31 341.896C252.71 342.056 253.278 342.216 254.014 342.376C255.102 342.616 255.942 342.88 256.534 343.168C257.142 343.456 257.574 343.808 257.83 344.224C258.086 344.64 258.214 345.168 258.214 345.808C258.214 346.816 257.79 347.632 256.942 348.256C256.094 348.864 254.974 349.168 253.582 349.168ZM262.161 349.12C261.873 349.12 261.633 349.04 261.441 348.88C261.265 348.704 261.177 348.464 261.177 348.16V338.032C261.177 337.728 261.265 337.496 261.441 337.336C261.633 337.16 261.873 337.072 262.161 337.072C262.449 337.072 262.681 337.16 262.857 337.336C263.033 337.496 263.121 337.728 263.121 338.032V348.16C263.121 348.48 263.033 348.72 262.857 348.88C262.681 349.04 262.449 349.12 262.161 349.12ZM262.161 334.552C261.777 334.552 261.465 334.44 261.225 334.216C260.985 333.992 260.865 333.696 260.865 333.328C260.865 332.976 260.985 332.688 261.225 332.464C261.465 332.24 261.777 332.128 262.161 332.128C262.545 332.128 262.857 332.24 263.097 332.464C263.337 332.688 263.457 332.976 263.457 333.328C263.457 333.696 263.337 333.992 263.097 334.216C262.857 334.44 262.545 334.552 262.161 334.552ZM272.343 347.584C272.903 347.632 273.183 347.888 273.183 348.352C273.183 348.624 273.079 348.832 272.871 348.976C272.679 349.104 272.383 349.152 271.983 349.12L271.335 349.072C270.055 348.976 269.111 348.592 268.503 347.92C267.895 347.248 267.591 346.232 267.591 344.872V338.848H265.983C265.711 338.848 265.495 338.784 265.335 338.656C265.191 338.512 265.119 338.328 265.119 338.104C265.119 337.864 265.191 337.672 265.335 337.528C265.495 337.384 265.711 337.312 265.983 337.312H267.591V334.6C267.591 334.296 267.679 334.064 267.855 333.904C268.031 333.728 268.271 333.64 268.575 333.64C268.863 333.64 269.095 333.728 269.271 333.904C269.447 334.064 269.535 334.296 269.535 334.6V337.312H272.199C272.455 337.312 272.655 337.384 272.799 337.528C272.959 337.672 273.039 337.864 273.039 338.104C273.039 338.328 272.959 338.512 272.799 338.656C272.655 338.784 272.455 338.848 272.199 338.848H269.535V344.968C269.535 345.848 269.711 346.488 270.063 346.888C270.431 347.272 270.975 347.488 271.695 347.536L272.343 347.584ZM284.147 346.288C284.323 346.288 284.475 346.36 284.603 346.504C284.731 346.648 284.795 346.832 284.795 347.056C284.795 347.456 284.515 347.824 283.955 348.16C283.379 348.496 282.771 348.752 282.131 348.928C281.491 349.088 280.867 349.168 280.259 349.168C278.451 349.168 277.019 348.632 275.963 347.56C274.923 346.488 274.403 345.008 274.403 343.12C274.403 341.92 274.635 340.864 275.099 339.952C275.563 339.024 276.211 338.304 277.043 337.792C277.891 337.28 278.851 337.024 279.923 337.024C281.443 337.024 282.651 337.52 283.547 338.512C284.443 339.504 284.891 340.848 284.891 342.544C284.891 342.864 284.827 343.096 284.699 343.24C284.571 343.384 284.363 343.456 284.075 343.456H276.347C276.491 346.208 277.795 347.584 280.259 347.584C280.883 347.584 281.419 347.504 281.867 347.344C282.315 347.168 282.795 346.936 283.307 346.648C283.723 346.408 284.003 346.288 284.147 346.288ZM279.947 338.536C278.923 338.536 278.099 338.856 277.475 339.496C276.867 340.136 276.507 341.04 276.395 342.208H283.187C283.155 341.024 282.859 340.12 282.299 339.496C281.739 338.856 280.955 338.536 279.947 338.536ZM298.791 349.168C297.687 349.168 296.711 348.92 295.863 348.424C295.031 347.928 294.383 347.224 293.919 346.312C293.471 345.384 293.247 344.312 293.247 343.096C293.247 341.88 293.471 340.816 293.919 339.904C294.383 338.976 295.031 338.264 295.863 337.768C296.711 337.272 297.687 337.024 298.791 337.024C299.895 337.024 300.871 337.272 301.719 337.768C302.567 338.264 303.215 338.976 303.663 339.904C304.127 340.816 304.359 341.88 304.359 343.096C304.359 344.312 304.127 345.384 303.663 346.312C303.215 347.224 302.567 347.928 301.719 348.424C300.871 348.92 299.895 349.168 298.791 349.168ZM298.791 347.56C299.943 347.56 300.823 347.184 301.431 346.432C302.055 345.664 302.367 344.552 302.367 343.096C302.367 341.672 302.055 340.576 301.431 339.808C300.807 339.024 299.927 338.632 298.791 338.632C297.655 338.632 296.775 339.024 296.151 339.808C295.527 340.576 295.215 341.672 295.215 343.096C295.215 344.536 295.519 345.64 296.127 346.408C296.751 347.176 297.639 347.56 298.791 347.56ZM313.039 337.072C313.711 337.024 314.047 337.296 314.047 337.888C314.047 338.144 313.975 338.352 313.831 338.512C313.687 338.656 313.439 338.744 313.087 338.776L312.367 338.848C311.295 338.944 310.495 339.328 309.967 340C309.455 340.656 309.199 341.432 309.199 342.328V348.16C309.199 348.48 309.111 348.72 308.935 348.88C308.759 349.04 308.527 349.12 308.239 349.12C307.951 349.12 307.711 349.04 307.519 348.88C307.343 348.704 307.255 348.464 307.255 348.16V338.032C307.255 337.728 307.351 337.496 307.543 337.336C307.735 337.16 307.967 337.072 308.239 337.072C308.495 337.072 308.711 337.16 308.887 337.336C309.063 337.496 309.151 337.72 309.151 338.008V339.352C309.487 338.648 309.959 338.112 310.567 337.744C311.191 337.376 311.903 337.16 312.703 337.096L313.039 337.072ZM321.814 333.616C320.966 333.68 320.326 333.952 319.894 334.432C319.462 334.896 319.246 335.6 319.246 336.544V337.312H321.91C322.182 337.312 322.39 337.384 322.534 337.528C322.678 337.672 322.75 337.864 322.75 338.104C322.75 338.344 322.678 338.528 322.534 338.656C322.39 338.784 322.182 338.848 321.91 338.848H319.246V348.16C319.246 348.464 319.15 348.704 318.958 348.88C318.782 349.04 318.558 349.12 318.286 349.12C317.998 349.12 317.758 349.04 317.566 348.88C317.39 348.704 317.302 348.464 317.302 348.16V338.848H315.694C315.422 338.848 315.206 338.784 315.046 338.656C314.902 338.512 314.83 338.328 314.83 338.104C314.83 337.864 314.902 337.672 315.046 337.528C315.206 337.384 315.422 337.312 315.694 337.312H317.302V336.88C317.302 335.44 317.662 334.312 318.382 333.496C319.102 332.664 320.134 332.2 321.478 332.104L322.102 332.056C322.518 332.024 322.814 332.064 322.99 332.176C323.182 332.288 323.278 332.488 323.278 332.776C323.278 333.24 322.998 333.504 322.438 333.568L321.814 333.616ZM329.188 337.024C332.116 337.024 333.58 338.56 333.58 341.632V348.16C333.58 348.448 333.492 348.68 333.316 348.856C333.156 349.032 332.932 349.12 332.644 349.12C332.356 349.12 332.124 349.032 331.948 348.856C331.772 348.68 331.684 348.448 331.684 348.16V347.008C331.38 347.696 330.916 348.232 330.292 348.616C329.668 348.984 328.948 349.168 328.132 349.168C327.38 349.168 326.684 349.016 326.044 348.712C325.42 348.408 324.924 347.984 324.556 347.44C324.188 346.896 324.004 346.296 324.004 345.64C324.004 344.76 324.228 344.08 324.676 343.6C325.124 343.104 325.86 342.752 326.884 342.544C327.908 342.32 329.332 342.208 331.156 342.208H331.684V341.416C331.684 340.456 331.484 339.752 331.084 339.304C330.7 338.856 330.068 338.632 329.188 338.632C328.1 338.632 326.996 338.928 325.876 339.52C325.444 339.792 325.14 339.928 324.964 339.928C324.772 339.928 324.612 339.856 324.484 339.712C324.356 339.568 324.292 339.384 324.292 339.16C324.292 338.936 324.356 338.744 324.484 338.584C324.628 338.408 324.852 338.232 325.156 338.056C325.716 337.736 326.348 337.488 327.052 337.312C327.772 337.12 328.484 337.024 329.188 337.024ZM328.396 347.632C329.356 347.632 330.14 347.312 330.748 346.672C331.372 346.016 331.684 345.176 331.684 344.152V343.456H331.252C329.844 343.456 328.772 343.52 328.036 343.648C327.3 343.76 326.772 343.96 326.452 344.248C326.148 344.52 325.996 344.928 325.996 345.472C325.996 346.096 326.22 346.616 326.668 347.032C327.132 347.432 327.708 347.632 328.396 347.632ZM343.018 337.024C345.818 337.024 347.218 338.568 347.218 341.656V348.16C347.218 348.464 347.13 348.704 346.954 348.88C346.794 349.04 346.562 349.12 346.258 349.12C345.954 349.12 345.714 349.04 345.538 348.88C345.362 348.704 345.274 348.464 345.274 348.16V341.776C345.274 340.688 345.058 339.896 344.626 339.4C344.21 338.904 343.538 338.656 342.61 338.656C341.538 338.656 340.682 338.984 340.042 339.64C339.402 340.296 339.082 341.184 339.082 342.304V348.16C339.082 348.464 338.994 348.704 338.818 348.88C338.658 349.04 338.426 349.12 338.122 349.12C337.818 349.12 337.578 349.04 337.402 348.88C337.226 348.704 337.138 348.464 337.138 348.16V338.032C337.138 337.744 337.226 337.512 337.402 337.336C337.578 337.16 337.818 337.072 338.122 337.072C338.41 337.072 338.634 337.16 338.794 337.336C338.97 337.512 339.058 337.736 339.058 338.008V339.232C339.442 338.512 339.978 337.968 340.666 337.6C341.354 337.216 342.138 337.024 343.018 337.024ZM355.555 337.024C358.483 337.024 359.947 338.56 359.947 341.632V348.16C359.947 348.448 359.859 348.68 359.683 348.856C359.523 349.032 359.299 349.12 359.011 349.12C358.723 349.12 358.491 349.032 358.315 348.856C358.139 348.68 358.051 348.448 358.051 348.16V347.008C357.747 347.696 357.283 348.232 356.659 348.616C356.035 348.984 355.315 349.168 354.499 349.168C353.747 349.168 353.051 349.016 352.411 348.712C351.787 348.408 351.291 347.984 350.923 347.44C350.555 346.896 350.371 346.296 350.371 345.64C350.371 344.76 350.595 344.08 351.043 343.6C351.491 343.104 352.227 342.752 353.251 342.544C354.275 342.32 355.699 342.208 357.523 342.208H358.051V341.416C358.051 340.456 357.851 339.752 357.451 339.304C357.067 338.856 356.435 338.632 355.555 338.632C354.467 338.632 353.363 338.928 352.243 339.52C351.811 339.792 351.507 339.928 351.331 339.928C351.139 339.928 350.979 339.856 350.851 339.712C350.723 339.568 350.659 339.384 350.659 339.16C350.659 338.936 350.723 338.744 350.851 338.584C350.995 338.408 351.219 338.232 351.523 338.056C352.083 337.736 352.715 337.488 353.419 337.312C354.139 337.12 354.851 337.024 355.555 337.024ZM354.763 347.632C355.723 347.632 356.507 347.312 357.115 346.672C357.739 346.016 358.051 345.176 358.051 344.152V343.456H357.619C356.211 343.456 355.139 343.52 354.403 343.648C353.667 343.76 353.139 343.96 352.819 344.248C352.515 344.52 352.363 344.928 352.363 345.472C352.363 346.096 352.587 346.616 353.035 347.032C353.499 347.432 354.075 347.632 354.763 347.632ZM368.905 347.584C369.465 347.632 369.745 347.888 369.745 348.352C369.745 348.624 369.641 348.832 369.433 348.976C369.241 349.104 368.945 349.152 368.545 349.12L367.897 349.072C366.617 348.976 365.673 348.592 365.065 347.92C364.457 347.248 364.153 346.232 364.153 344.872V338.848H362.545C362.273 338.848 362.057 338.784 361.897 338.656C361.753 338.512 361.681 338.328 361.681 338.104C361.681 337.864 361.753 337.672 361.897 337.528C362.057 337.384 362.273 337.312 362.545 337.312H364.153V334.6C364.153 334.296 364.241 334.064 364.417 333.904C364.593 333.728 364.833 333.64 365.137 333.64C365.425 333.64 365.657 333.728 365.833 333.904C366.009 334.064 366.097 334.296 366.097 334.6V337.312H368.761C369.017 337.312 369.217 337.384 369.361 337.528C369.521 337.672 369.601 337.864 369.601 338.104C369.601 338.328 369.521 338.512 369.361 338.656C369.217 338.784 369.017 338.848 368.761 338.848H366.097V344.968C366.097 345.848 366.273 346.488 366.625 346.888C366.993 347.272 367.537 347.488 368.257 347.536L368.905 347.584ZM376.51 349.168C375.406 349.168 374.43 348.92 373.582 348.424C372.75 347.928 372.102 347.224 371.638 346.312C371.19 345.384 370.966 344.312 370.966 343.096C370.966 341.88 371.19 340.816 371.638 339.904C372.102 338.976 372.75 338.264 373.582 337.768C374.43 337.272 375.406 337.024 376.51 337.024C377.614 337.024 378.59 337.272 379.438 337.768C380.286 338.264 380.934 338.976 381.382 339.904C381.846 340.816 382.078 341.88 382.078 343.096C382.078 344.312 381.846 345.384 381.382 346.312C380.934 347.224 380.286 347.928 379.438 348.424C378.59 348.92 377.614 349.168 376.51 349.168ZM376.51 347.56C377.662 347.56 378.542 347.184 379.15 346.432C379.774 345.664 380.086 344.552 380.086 343.096C380.086 341.672 379.774 340.576 379.15 339.808C378.526 339.024 377.646 338.632 376.51 338.632C375.374 338.632 374.494 339.024 373.87 339.808C373.246 340.576 372.934 341.672 372.934 343.096C372.934 344.536 373.238 345.64 373.846 346.408C374.47 347.176 375.358 347.56 376.51 347.56ZM388.91 349.168C388.174 349.168 387.47 349.08 386.798 348.904C386.142 348.728 385.558 348.48 385.046 348.16C384.758 347.968 384.55 347.792 384.422 347.632C384.31 347.456 384.254 347.248 384.254 347.008C384.254 346.8 384.31 346.632 384.422 346.504C384.55 346.36 384.71 346.288 384.902 346.288C385.094 346.288 385.374 346.408 385.742 346.648C386.222 346.936 386.694 347.168 387.158 347.344C387.638 347.504 388.23 347.584 388.934 347.584C389.798 347.584 390.47 347.432 390.95 347.128C391.43 346.824 391.67 346.384 391.67 345.808C391.67 345.456 391.582 345.176 391.406 344.968C391.23 344.744 390.926 344.552 390.494 344.392C390.062 344.216 389.43 344.04 388.598 343.864C387.19 343.56 386.182 343.152 385.574 342.64C384.966 342.128 384.662 341.432 384.662 340.552C384.662 339.864 384.854 339.256 385.238 338.728C385.622 338.2 386.15 337.784 386.822 337.48C387.51 337.176 388.286 337.024 389.15 337.024C389.774 337.024 390.374 337.112 390.95 337.288C391.542 337.448 392.062 337.68 392.51 337.984C393.054 338.368 393.326 338.768 393.326 339.184C393.326 339.392 393.262 339.568 393.134 339.712C393.006 339.856 392.854 339.928 392.678 339.928C392.486 339.928 392.198 339.792 391.814 339.52C391.366 339.232 390.942 339.008 390.542 338.848C390.142 338.688 389.646 338.608 389.054 338.608C388.302 338.608 387.694 338.776 387.23 339.112C386.782 339.448 386.558 339.896 386.558 340.456C386.558 340.808 386.638 341.096 386.798 341.32C386.974 341.528 387.254 341.72 387.638 341.896C388.038 342.056 388.606 342.216 389.342 342.376C390.43 342.616 391.27 342.88 391.862 343.168C392.47 343.456 392.902 343.808 393.158 344.224C393.414 344.64 393.542 345.168 393.542 345.808C393.542 346.816 393.118 347.632 392.27 348.256C391.422 348.864 390.302 349.168 388.91 349.168ZM411.741 346.288C411.917 346.288 412.069 346.36 412.197 346.504C412.325 346.648 412.389 346.832 412.389 347.056C412.389 347.456 412.109 347.824 411.549 348.16C410.973 348.496 410.365 348.752 409.725 348.928C409.085 349.088 408.461 349.168 407.853 349.168C406.045 349.168 404.613 348.632 403.557 347.56C402.517 346.488 401.997 345.008 401.997 343.12C401.997 341.92 402.229 340.864 402.693 339.952C403.157 339.024 403.805 338.304 404.637 337.792C405.485 337.28 406.445 337.024 407.517 337.024C409.037 337.024 410.245 337.52 411.141 338.512C412.037 339.504 412.485 340.848 412.485 342.544C412.485 342.864 412.421 343.096 412.293 343.24C412.165 343.384 411.957 343.456 411.669 343.456H403.941C404.085 346.208 405.389 347.584 407.853 347.584C408.477 347.584 409.013 347.504 409.461 347.344C409.909 347.168 410.389 346.936 410.901 346.648C411.317 346.408 411.597 346.288 411.741 346.288ZM407.541 338.536C406.517 338.536 405.693 338.856 405.069 339.496C404.461 340.136 404.101 341.04 403.989 342.208H410.781C410.749 341.024 410.453 340.12 409.893 339.496C409.333 338.856 408.549 338.536 407.541 338.536ZM434.545 337.024C437.137 337.024 438.433 338.568 438.433 341.656V348.16C438.433 348.464 438.345 348.704 438.169 348.88C437.993 349.04 437.761 349.12 437.473 349.12C437.185 349.12 436.945 349.04 436.753 348.88C436.577 348.704 436.489 348.464 436.489 348.16V341.704C436.489 340.632 436.297 339.856 435.913 339.376C435.529 338.896 434.929 338.656 434.113 338.656C433.137 338.656 432.369 338.984 431.809 339.64C431.249 340.296 430.969 341.184 430.969 342.304V348.16C430.969 348.464 430.873 348.704 430.681 348.88C430.505 349.04 430.273 349.12 429.985 349.12C429.697 349.12 429.465 349.04 429.289 348.88C429.113 348.704 429.025 348.464 429.025 348.16V341.704C429.025 340.632 428.833 339.856 428.449 339.376C428.065 338.896 427.457 338.656 426.625 338.656C425.665 338.656 424.897 338.984 424.321 339.64C423.761 340.296 423.481 341.184 423.481 342.304V348.16C423.481 348.464 423.393 348.704 423.217 348.88C423.041 349.04 422.809 349.12 422.521 349.12C422.233 349.12 421.993 349.04 421.801 348.88C421.625 348.704 421.537 348.464 421.537 348.16V338.032C421.537 337.744 421.625 337.512 421.801 337.336C421.993 337.16 422.233 337.072 422.521 337.072C422.793 337.072 423.017 337.16 423.193 337.336C423.369 337.496 423.457 337.72 423.457 338.008V339.16C423.809 338.472 424.297 337.944 424.921 337.576C425.545 337.208 426.265 337.024 427.081 337.024C428.905 337.024 430.097 337.792 430.657 339.328C430.993 338.624 431.505 338.064 432.193 337.648C432.881 337.232 433.665 337.024 434.545 337.024ZM450.854 337.072C451.158 337.072 451.39 337.16 451.55 337.336C451.726 337.512 451.814 337.744 451.814 338.032V348.184C451.814 348.456 451.726 348.68 451.55 348.856C451.39 349.032 451.158 349.12 450.854 349.12C450.566 349.12 450.334 349.04 450.158 348.88C449.998 348.704 449.918 348.48 449.918 348.208V347.008C449.55 347.712 449.03 348.248 448.358 348.616C447.702 348.984 446.958 349.168 446.126 349.168C444.734 349.168 443.686 348.784 442.982 348.016C442.278 347.232 441.926 346.08 441.926 344.56V338.032C441.926 337.744 442.014 337.512 442.19 337.336C442.366 337.16 442.606 337.072 442.91 337.072C443.214 337.072 443.446 337.16 443.606 337.336C443.782 337.512 443.87 337.744 443.87 338.032V344.512C443.87 345.552 444.078 346.32 444.494 346.816C444.91 347.296 445.566 347.536 446.462 347.536C447.486 347.536 448.31 347.208 448.934 346.552C449.558 345.88 449.87 345 449.87 343.912V338.032C449.87 337.744 449.958 337.512 450.134 337.336C450.31 337.16 450.55 337.072 450.854 337.072ZM464.811 331.96C465.115 331.96 465.355 332.048 465.531 332.224C465.707 332.4 465.795 332.624 465.795 332.896V348.16C465.795 348.448 465.707 348.68 465.531 348.856C465.355 349.032 465.115 349.12 464.811 349.12C464.507 349.12 464.267 349.032 464.091 348.856C463.931 348.68 463.851 348.448 463.851 348.16V346.864C463.499 347.6 462.979 348.168 462.291 348.568C461.619 348.968 460.827 349.168 459.915 349.168C458.891 349.168 457.987 348.912 457.203 348.4C456.419 347.888 455.811 347.176 455.379 346.264C454.947 345.336 454.731 344.264 454.731 343.048C454.731 341.848 454.947 340.792 455.379 339.88C455.811 338.968 456.419 338.264 457.203 337.768C457.987 337.272 458.891 337.024 459.915 337.024C460.827 337.024 461.619 337.224 462.291 337.624C462.979 338.024 463.499 338.592 463.851 339.328V332.896C463.851 332.608 463.931 332.384 464.091 332.224C464.267 332.048 464.507 331.96 464.811 331.96ZM460.299 347.56C461.435 347.56 462.307 347.176 462.915 346.408C463.539 345.624 463.851 344.52 463.851 343.096C463.851 341.672 463.539 340.576 462.915 339.808C462.307 339.04 461.435 338.656 460.299 338.656C459.163 338.656 458.275 339.04 457.635 339.808C457.011 340.576 456.699 341.656 456.699 343.048C456.699 344.472 457.011 345.584 457.635 346.384C458.275 347.168 459.163 347.56 460.299 347.56ZM478.444 346.288C478.62 346.288 478.772 346.36 478.9 346.504C479.028 346.648 479.092 346.832 479.092 347.056C479.092 347.456 478.812 347.824 478.252 348.16C477.676 348.496 477.068 348.752 476.428 348.928C475.788 349.088 475.164 349.168 474.556 349.168C472.748 349.168 471.316 348.632 470.26 347.56C469.22 346.488 468.7 345.008 468.7 343.12C468.7 341.92 468.932 340.864 469.396 339.952C469.86 339.024 470.508 338.304 471.34 337.792C472.188 337.28 473.148 337.024 474.22 337.024C475.74 337.024 476.948 337.52 477.844 338.512C478.74 339.504 479.188 340.848 479.188 342.544C479.188 342.864 479.124 343.096 478.996 343.24C478.868 343.384 478.66 343.456 478.372 343.456H470.644C470.788 346.208 472.092 347.584 474.556 347.584C475.18 347.584 475.716 347.504 476.164 347.344C476.612 347.168 477.092 346.936 477.604 346.648C478.02 346.408 478.3 346.288 478.444 346.288ZM474.244 338.536C473.22 338.536 472.396 338.856 471.772 339.496C471.164 340.136 470.804 341.04 470.692 342.208H477.484C477.452 341.024 477.156 340.12 476.596 339.496C476.036 338.856 475.252 338.536 474.244 338.536ZM493.088 349.168C491.984 349.168 491.008 348.92 490.16 348.424C489.328 347.928 488.68 347.224 488.216 346.312C487.768 345.384 487.544 344.312 487.544 343.096C487.544 341.88 487.768 340.816 488.216 339.904C488.68 338.976 489.328 338.264 490.16 337.768C491.008 337.272 491.984 337.024 493.088 337.024C494.192 337.024 495.168 337.272 496.016 337.768C496.864 338.264 497.512 338.976 497.96 339.904C498.424 340.816 498.656 341.88 498.656 343.096C498.656 344.312 498.424 345.384 497.96 346.312C497.512 347.224 496.864 347.928 496.016 348.424C495.168 348.92 494.192 349.168 493.088 349.168ZM493.088 347.56C494.24 347.56 495.12 347.184 495.728 346.432C496.352 345.664 496.664 344.552 496.664 343.096C496.664 341.672 496.352 340.576 495.728 339.808C495.104 339.024 494.224 338.632 493.088 338.632C491.952 338.632 491.072 339.024 490.448 339.808C489.824 340.576 489.512 341.672 489.512 343.096C489.512 344.536 489.816 345.64 490.424 346.408C491.048 347.176 491.936 347.56 493.088 347.56ZM517.124 331.96C517.428 331.96 517.668 332.048 517.844 332.224C518.02 332.4 518.108 332.624 518.108 332.896V348.16C518.108 348.448 518.02 348.68 517.844 348.856C517.668 349.032 517.428 349.12 517.124 349.12C516.82 349.12 516.58 349.032 516.404 348.856C516.244 348.68 516.164 348.448 516.164 348.16V346.864C515.812 347.6 515.292 348.168 514.604 348.568C513.932 348.968 513.14 349.168 512.228 349.168C511.204 349.168 510.3 348.912 509.516 348.4C508.732 347.888 508.124 347.176 507.692 346.264C507.26 345.336 507.044 344.264 507.044 343.048C507.044 341.848 507.26 340.792 507.692 339.88C508.124 338.968 508.732 338.264 509.516 337.768C510.3 337.272 511.204 337.024 512.228 337.024C513.14 337.024 513.932 337.224 514.604 337.624C515.292 338.024 515.812 338.592 516.164 339.328V332.896C516.164 332.608 516.244 332.384 516.404 332.224C516.58 332.048 516.82 331.96 517.124 331.96ZM512.612 347.56C513.748 347.56 514.62 347.176 515.228 346.408C515.852 345.624 516.164 344.52 516.164 343.096C516.164 341.672 515.852 340.576 515.228 339.808C514.62 339.04 513.748 338.656 512.612 338.656C511.476 338.656 510.588 339.04 509.948 339.808C509.324 340.576 509.012 341.656 509.012 343.048C509.012 344.472 509.324 345.584 509.948 346.384C510.588 347.168 511.476 347.56 512.612 347.56ZM522.693 349.12C522.405 349.12 522.165 349.04 521.973 348.88C521.797 348.704 521.709 348.464 521.709 348.16V338.032C521.709 337.728 521.797 337.496 521.973 337.336C522.165 337.16 522.405 337.072 522.693 337.072C522.981 337.072 523.213 337.16 523.389 337.336C523.565 337.496 523.653 337.728 523.653 338.032V348.16C523.653 348.48 523.565 348.72 523.389 348.88C523.213 349.04 522.981 349.12 522.693 349.12ZM522.693 334.552C522.309 334.552 521.997 334.44 521.757 334.216C521.517 333.992 521.397 333.696 521.397 333.328C521.397 332.976 521.517 332.688 521.757 332.464C521.997 332.24 522.309 332.128 522.693 332.128C523.077 332.128 523.389 332.24 523.629 332.464C523.869 332.688 523.989 332.976 523.989 333.328C523.989 333.696 523.869 333.992 523.629 334.216C523.389 334.44 523.077 334.552 522.693 334.552ZM532.063 337.024C534.991 337.024 536.455 338.56 536.455 341.632V348.16C536.455 348.448 536.367 348.68 536.191 348.856C536.031 349.032 535.807 349.12 535.519 349.12C535.231 349.12 534.999 349.032 534.823 348.856C534.647 348.68 534.559 348.448 534.559 348.16V347.008C534.255 347.696 533.791 348.232 533.167 348.616C532.543 348.984 531.823 349.168 531.007 349.168C530.255 349.168 529.559 349.016 528.919 348.712C528.295 348.408 527.799 347.984 527.431 347.44C527.063 346.896 526.879 346.296 526.879 345.64C526.879 344.76 527.103 344.08 527.551 343.6C527.999 343.104 528.735 342.752 529.759 342.544C530.783 342.32 532.207 342.208 534.031 342.208H534.559V341.416C534.559 340.456 534.359 339.752 533.959 339.304C533.575 338.856 532.943 338.632 532.063 338.632C530.975 338.632 529.871 338.928 528.751 339.52C528.319 339.792 528.015 339.928 527.839 339.928C527.647 339.928 527.487 339.856 527.359 339.712C527.231 339.568 527.167 339.384 527.167 339.16C527.167 338.936 527.231 338.744 527.359 338.584C527.503 338.408 527.727 338.232 528.031 338.056C528.591 337.736 529.223 337.488 529.927 337.312C530.647 337.12 531.359 337.024 532.063 337.024ZM531.271 347.632C532.231 347.632 533.015 347.312 533.623 346.672C534.247 346.016 534.559 345.176 534.559 344.152V343.456H534.127C532.719 343.456 531.647 343.52 530.911 343.648C530.175 343.76 529.647 343.96 529.327 344.248C529.023 344.52 528.871 344.928 528.871 345.472C528.871 346.096 529.095 346.616 529.543 347.032C530.007 347.432 530.583 347.632 531.271 347.632ZM555.585 331.96C555.889 331.96 556.129 332.048 556.305 332.224C556.481 332.4 556.569 332.624 556.569 332.896V348.16C556.569 348.448 556.481 348.68 556.305 348.856C556.129 349.032 555.889 349.12 555.585 349.12C555.281 349.12 555.041 349.032 554.865 348.856C554.705 348.68 554.625 348.448 554.625 348.16V346.864C554.273 347.6 553.753 348.168 553.065 348.568C552.393 348.968 551.601 349.168 550.689 349.168C549.665 349.168 548.761 348.912 547.977 348.4C547.193 347.888 546.585 347.176 546.153 346.264C545.721 345.336 545.505 344.264 545.505 343.048C545.505 341.848 545.721 340.792 546.153 339.88C546.585 338.968 547.193 338.264 547.977 337.768C548.761 337.272 549.665 337.024 550.689 337.024C551.601 337.024 552.393 337.224 553.065 337.624C553.753 338.024 554.273 338.592 554.625 339.328V332.896C554.625 332.608 554.705 332.384 554.865 332.224C555.041 332.048 555.281 331.96 555.585 331.96ZM551.073 347.56C552.209 347.56 553.081 347.176 553.689 346.408C554.313 345.624 554.625 344.52 554.625 343.096C554.625 341.672 554.313 340.576 553.689 339.808C553.081 339.04 552.209 338.656 551.073 338.656C549.937 338.656 549.049 339.04 548.409 339.808C547.785 340.576 547.473 341.656 547.473 343.048C547.473 344.472 547.785 345.584 548.409 346.384C549.049 347.168 549.937 347.56 551.073 347.56ZM569.217 346.288C569.393 346.288 569.545 346.36 569.673 346.504C569.801 346.648 569.865 346.832 569.865 347.056C569.865 347.456 569.585 347.824 569.025 348.16C568.449 348.496 567.841 348.752 567.201 348.928C566.561 349.088 565.937 349.168 565.329 349.168C563.521 349.168 562.089 348.632 561.033 347.56C559.993 346.488 559.473 345.008 559.473 343.12C559.473 341.92 559.705 340.864 560.169 339.952C560.633 339.024 561.281 338.304 562.113 337.792C562.961 337.28 563.921 337.024 564.993 337.024C566.513 337.024 567.721 337.52 568.617 338.512C569.513 339.504 569.961 340.848 569.961 342.544C569.961 342.864 569.897 343.096 569.769 343.24C569.641 343.384 569.433 343.456 569.145 343.456H561.417C561.561 346.208 562.865 347.584 565.329 347.584C565.953 347.584 566.489 347.504 566.937 347.344C567.385 347.168 567.865 346.936 568.377 346.648C568.793 346.408 569.073 346.288 569.217 346.288ZM565.017 338.536C563.993 338.536 563.169 338.856 562.545 339.496C561.937 340.136 561.577 341.04 561.465 342.208H568.257C568.225 341.024 567.929 340.12 567.369 339.496C566.809 338.856 566.025 338.536 565.017 338.536ZM592.021 337.024C594.613 337.024 595.909 338.568 595.909 341.656V348.16C595.909 348.464 595.821 348.704 595.645 348.88C595.469 349.04 595.237 349.12 594.949 349.12C594.661 349.12 594.421 349.04 594.229 348.88C594.053 348.704 593.965 348.464 593.965 348.16V341.704C593.965 340.632 593.773 339.856 593.389 339.376C593.005 338.896 592.405 338.656 591.589 338.656C590.613 338.656 589.845 338.984 589.285 339.64C588.725 340.296 588.445 341.184 588.445 342.304V348.16C588.445 348.464 588.349 348.704 588.157 348.88C587.981 349.04 587.749 349.12 587.461 349.12C587.173 349.12 586.941 349.04 586.765 348.88C586.589 348.704 586.501 348.464 586.501 348.16V341.704C586.501 340.632 586.309 339.856 585.925 339.376C585.541 338.896 584.933 338.656 584.101 338.656C583.141 338.656 582.373 338.984 581.797 339.64C581.237 340.296 580.957 341.184 580.957 342.304V348.16C580.957 348.464 580.869 348.704 580.693 348.88C580.517 349.04 580.285 349.12 579.997 349.12C579.709 349.12 579.469 349.04 579.277 348.88C579.101 348.704 579.013 348.464 579.013 348.16V338.032C579.013 337.744 579.101 337.512 579.277 337.336C579.469 337.16 579.709 337.072 579.997 337.072C580.269 337.072 580.493 337.16 580.669 337.336C580.845 337.496 580.933 337.72 580.933 338.008V339.16C581.285 338.472 581.773 337.944 582.397 337.576C583.021 337.208 583.741 337.024 584.557 337.024C586.381 337.024 587.573 337.792 588.133 339.328C588.469 338.624 588.981 338.064 589.669 337.648C590.357 337.232 591.141 337.024 592.021 337.024ZM608.331 337.072C608.635 337.072 608.867 337.16 609.027 337.336C609.203 337.512 609.291 337.744 609.291 338.032V348.184C609.291 348.456 609.203 348.68 609.027 348.856C608.867 349.032 608.635 349.12 608.331 349.12C608.043 349.12 607.811 349.04 607.635 348.88C607.475 348.704 607.395 348.48 607.395 348.208V347.008C607.027 347.712 606.507 348.248 605.835 348.616C605.179 348.984 604.435 349.168 603.603 349.168C602.211 349.168 601.163 348.784 600.459 348.016C599.755 347.232 599.403 346.08 599.403 344.56V338.032C599.403 337.744 599.491 337.512 599.667 337.336C599.843 337.16 600.083 337.072 600.387 337.072C600.691 337.072 600.923 337.16 601.083 337.336C601.259 337.512 601.347 337.744 601.347 338.032V344.512C601.347 345.552 601.555 346.32 601.971 346.816C602.387 347.296 603.043 347.536 603.939 347.536C604.963 347.536 605.787 347.208 606.411 346.552C607.035 345.88 607.347 345 607.347 343.912V338.032C607.347 337.744 607.435 337.512 607.611 337.336C607.787 337.16 608.027 337.072 608.331 337.072ZM613.888 349.12C613.6 349.12 613.36 349.04 613.168 348.88C612.992 348.704 612.904 348.464 612.904 348.16V338.032C612.904 337.728 612.992 337.496 613.168 337.336C613.36 337.16 613.6 337.072 613.888 337.072C614.176 337.072 614.408 337.16 614.584 337.336C614.76 337.496 614.848 337.728 614.848 338.032V348.16C614.848 348.48 614.76 348.72 614.584 348.88C614.408 349.04 614.176 349.12 613.888 349.12ZM613.888 334.552C613.504 334.552 613.192 334.44 612.952 334.216C612.712 333.992 612.592 333.696 612.592 333.328C612.592 332.976 612.712 332.688 612.952 332.464C613.192 332.24 613.504 332.128 613.888 332.128C614.272 332.128 614.584 332.24 614.824 332.464C615.064 332.688 615.184 332.976 615.184 333.328C615.184 333.696 615.064 333.992 614.824 334.216C614.584 334.44 614.272 334.552 613.888 334.552ZM624.069 347.584C624.629 347.632 624.909 347.888 624.909 348.352C624.909 348.624 624.805 348.832 624.597 348.976C624.405 349.104 624.109 349.152 623.709 349.12L623.061 349.072C621.781 348.976 620.837 348.592 620.229 347.92C619.621 347.248 619.317 346.232 619.317 344.872V338.848H617.709C617.437 338.848 617.221 338.784 617.061 338.656C616.917 338.512 616.845 338.328 616.845 338.104C616.845 337.864 616.917 337.672 617.061 337.528C617.221 337.384 617.437 337.312 617.709 337.312H619.317V334.6C619.317 334.296 619.405 334.064 619.581 333.904C619.757 333.728 619.997 333.64 620.301 333.64C620.589 333.64 620.821 333.728 620.997 333.904C621.173 334.064 621.261 334.296 621.261 334.6V337.312H623.925C624.181 337.312 624.381 337.384 624.525 337.528C624.685 337.672 624.765 337.864 624.765 338.104C624.765 338.328 624.685 338.512 624.525 338.656C624.381 338.784 624.181 338.848 623.925 338.848H621.261V344.968C621.261 345.848 621.437 346.488 621.789 346.888C622.157 347.272 622.701 347.488 623.421 347.536L624.069 347.584ZM631.602 337.024C634.53 337.024 635.994 338.56 635.994 341.632V348.16C635.994 348.448 635.906 348.68 635.73 348.856C635.57 349.032 635.346 349.12 635.058 349.12C634.77 349.12 634.538 349.032 634.362 348.856C634.186 348.68 634.098 348.448 634.098 348.16V347.008C633.794 347.696 633.33 348.232 632.706 348.616C632.082 348.984 631.362 349.168 630.546 349.168C629.794 349.168 629.098 349.016 628.458 348.712C627.834 348.408 627.338 347.984 626.97 347.44C626.602 346.896 626.418 346.296 626.418 345.64C626.418 344.76 626.642 344.08 627.09 343.6C627.538 343.104 628.274 342.752 629.298 342.544C630.322 342.32 631.746 342.208 633.57 342.208H634.098V341.416C634.098 340.456 633.898 339.752 633.498 339.304C633.114 338.856 632.482 338.632 631.602 338.632C630.514 338.632 629.41 338.928 628.29 339.52C627.858 339.792 627.554 339.928 627.378 339.928C627.186 339.928 627.026 339.856 626.898 339.712C626.77 339.568 626.706 339.384 626.706 339.16C626.706 338.936 626.77 338.744 626.898 338.584C627.042 338.408 627.266 338.232 627.57 338.056C628.13 337.736 628.762 337.488 629.466 337.312C630.186 337.12 630.898 337.024 631.602 337.024ZM630.81 347.632C631.77 347.632 632.554 347.312 633.162 346.672C633.786 346.016 634.098 345.176 634.098 344.152V343.456H633.666C632.258 343.456 631.186 343.52 630.45 343.648C629.714 343.76 629.186 343.96 628.866 344.248C628.562 344.52 628.41 344.928 628.41 345.472C628.41 346.096 628.634 346.616 629.082 347.032C629.546 347.432 630.122 347.632 630.81 347.632ZM643.488 349.168C642.752 349.168 642.048 349.08 641.376 348.904C640.72 348.728 640.136 348.48 639.624 348.16C639.336 347.968 639.128 347.792 639 347.632C638.888 347.456 638.832 347.248 638.832 347.008C638.832 346.8 638.888 346.632 639 346.504C639.128 346.36 639.288 346.288 639.48 346.288C639.672 346.288 639.952 346.408 640.32 346.648C640.8 346.936 641.272 347.168 641.736 347.344C642.216 347.504 642.808 347.584 643.512 347.584C644.376 347.584 645.048 347.432 645.528 347.128C646.008 346.824 646.248 346.384 646.248 345.808C646.248 345.456 646.16 345.176 645.984 344.968C645.808 344.744 645.504 344.552 645.072 344.392C644.64 344.216 644.008 344.04 643.176 343.864C641.768 343.56 640.76 343.152 640.152 342.64C639.544 342.128 639.24 341.432 639.24 340.552C639.24 339.864 639.432 339.256 639.816 338.728C640.2 338.2 640.728 337.784 641.4 337.48C642.088 337.176 642.864 337.024 643.728 337.024C644.352 337.024 644.952 337.112 645.528 337.288C646.12 337.448 646.64 337.68 647.088 337.984C647.632 338.368 647.904 338.768 647.904 339.184C647.904 339.392 647.84 339.568 647.712 339.712C647.584 339.856 647.432 339.928 647.256 339.928C647.064 339.928 646.776 339.792 646.392 339.52C645.944 339.232 645.52 339.008 645.12 338.848C644.72 338.688 644.224 338.608 643.632 338.608C642.88 338.608 642.272 338.776 641.808 339.112C641.36 339.448 641.136 339.896 641.136 340.456C641.136 340.808 641.216 341.096 641.376 341.32C641.552 341.528 641.832 341.72 642.216 341.896C642.616 342.056 643.184 342.216 643.92 342.376C645.008 342.616 645.848 342.88 646.44 343.168C647.048 343.456 647.48 343.808 647.736 344.224C647.992 344.64 648.12 345.168 648.12 345.808C648.12 346.816 647.696 347.632 646.848 348.256C646 348.864 644.88 349.168 643.488 349.168ZM662.095 349.168C661.007 349.168 660.039 348.92 659.191 348.424C658.359 347.928 657.711 347.224 657.247 346.312C656.799 345.4 656.575 344.344 656.575 343.144C656.575 341.944 656.807 340.88 657.271 339.952C657.751 339.024 658.415 338.304 659.263 337.792C660.111 337.28 661.087 337.024 662.191 337.024C662.799 337.024 663.399 337.112 663.991 337.288C664.599 337.448 665.127 337.688 665.575 338.008C665.863 338.2 666.063 338.392 666.175 338.584C666.303 338.76 666.367 338.96 666.367 339.184C666.367 339.408 666.303 339.592 666.175 339.736C666.063 339.88 665.911 339.952 665.719 339.952C665.607 339.952 665.487 339.92 665.359 339.856C665.231 339.792 665.119 339.728 665.023 339.664C664.943 339.6 664.887 339.56 664.855 339.544C664.439 339.272 664.039 339.056 663.655 338.896C663.287 338.736 662.831 338.656 662.287 338.656C661.119 338.656 660.207 339.056 659.551 339.856C658.911 340.64 658.591 341.736 658.591 343.144C658.591 344.552 658.911 345.64 659.551 346.408C660.207 347.176 661.119 347.56 662.287 347.56C662.831 347.56 663.295 347.48 663.679 347.32C664.079 347.16 664.479 346.944 664.879 346.672C665.055 346.56 665.223 346.464 665.383 346.384C665.543 346.304 665.679 346.264 665.791 346.264C665.967 346.264 666.111 346.336 666.223 346.48C666.351 346.624 666.415 346.808 666.415 347.032C666.415 347.24 666.359 347.432 666.247 347.608C666.135 347.768 665.927 347.952 665.623 348.16C665.175 348.464 664.631 348.712 663.991 348.904C663.367 349.08 662.735 349.168 662.095 349.168ZM674.539 337.072C675.211 337.024 675.547 337.296 675.547 337.888C675.547 338.144 675.475 338.352 675.331 338.512C675.187 338.656 674.939 338.744 674.587 338.776L673.867 338.848C672.795 338.944 671.995 339.328 671.467 340C670.955 340.656 670.699 341.432 670.699 342.328V348.16C670.699 348.48 670.611 348.72 670.435 348.88C670.259 349.04 670.027 349.12 669.739 349.12C669.451 349.12 669.211 349.04 669.019 348.88C668.843 348.704 668.755 348.464 668.755 348.16V338.032C668.755 337.728 668.851 337.496 669.043 337.336C669.235 337.16 669.467 337.072 669.739 337.072C669.995 337.072 670.211 337.16 670.387 337.336C670.563 337.496 670.651 337.72 670.651 338.008V339.352C670.987 338.648 671.459 338.112 672.067 337.744C672.691 337.376 673.403 337.16 674.203 337.096L674.539 337.072ZM678.2 349.12C677.912 349.12 677.672 349.04 677.48 348.88C677.304 348.704 677.216 348.464 677.216 348.16V338.032C677.216 337.728 677.304 337.496 677.48 337.336C677.672 337.16 677.912 337.072 678.2 337.072C678.488 337.072 678.72 337.16 678.896 337.336C679.072 337.496 679.16 337.728 679.16 338.032V348.16C679.16 348.48 679.072 348.72 678.896 348.88C678.72 349.04 678.488 349.12 678.2 349.12ZM678.2 334.552C677.816 334.552 677.504 334.44 677.264 334.216C677.024 333.992 676.904 333.696 676.904 333.328C676.904 332.976 677.024 332.688 677.264 332.464C677.504 332.24 677.816 332.128 678.2 332.128C678.584 332.128 678.896 332.24 679.136 332.464C679.376 332.688 679.496 332.976 679.496 333.328C679.496 333.696 679.376 333.992 679.136 334.216C678.896 334.44 678.584 334.552 678.2 334.552ZM687.57 337.024C690.498 337.024 691.962 338.56 691.962 341.632V348.16C691.962 348.448 691.874 348.68 691.698 348.856C691.538 349.032 691.314 349.12 691.026 349.12C690.738 349.12 690.506 349.032 690.33 348.856C690.154 348.68 690.066 348.448 690.066 348.16V347.008C689.762 347.696 689.298 348.232 688.674 348.616C688.05 348.984 687.33 349.168 686.514 349.168C685.762 349.168 685.066 349.016 684.426 348.712C683.802 348.408 683.306 347.984 682.938 347.44C682.57 346.896 682.386 346.296 682.386 345.64C682.386 344.76 682.61 344.08 683.058 343.6C683.506 343.104 684.242 342.752 685.266 342.544C686.29 342.32 687.714 342.208 689.538 342.208H690.066V341.416C690.066 340.456 689.866 339.752 689.466 339.304C689.082 338.856 688.45 338.632 687.57 338.632C686.482 338.632 685.378 338.928 684.258 339.52C683.826 339.792 683.522 339.928 683.346 339.928C683.154 339.928 682.994 339.856 682.866 339.712C682.738 339.568 682.674 339.384 682.674 339.16C682.674 338.936 682.738 338.744 682.866 338.584C683.01 338.408 683.234 338.232 683.538 338.056C684.098 337.736 684.73 337.488 685.434 337.312C686.154 337.12 686.866 337.024 687.57 337.024ZM686.778 347.632C687.738 347.632 688.522 347.312 689.13 346.672C689.754 346.016 690.066 345.176 690.066 344.152V343.456H689.634C688.226 343.456 687.154 343.52 686.418 343.648C685.682 343.76 685.154 343.96 684.834 344.248C684.53 344.52 684.378 344.928 684.378 345.472C684.378 346.096 684.602 346.616 685.05 347.032C685.514 347.432 686.09 347.632 686.778 347.632ZM701.401 337.024C704.201 337.024 705.601 338.568 705.601 341.656V348.16C705.601 348.464 705.513 348.704 705.337 348.88C705.177 349.04 704.945 349.12 704.641 349.12C704.337 349.12 704.097 349.04 703.921 348.88C703.745 348.704 703.657 348.464 703.657 348.16V341.776C703.657 340.688 703.441 339.896 703.009 339.4C702.593 338.904 701.921 338.656 700.993 338.656C699.921 338.656 699.065 338.984 698.425 339.64C697.785 340.296 697.465 341.184 697.465 342.304V348.16C697.465 348.464 697.377 348.704 697.201 348.88C697.041 349.04 696.809 349.12 696.505 349.12C696.201 349.12 695.961 349.04 695.785 348.88C695.609 348.704 695.521 348.464 695.521 348.16V338.032C695.521 337.744 695.609 337.512 695.785 337.336C695.961 337.16 696.201 337.072 696.505 337.072C696.793 337.072 697.017 337.16 697.177 337.336C697.353 337.512 697.441 337.736 697.441 338.008V339.232C697.825 338.512 698.361 337.968 699.049 337.6C699.737 337.216 700.521 337.024 701.401 337.024ZM717.682 346.264C717.858 346.264 718.002 346.336 718.114 346.48C718.242 346.624 718.306 346.808 718.306 347.032C718.306 347.24 718.25 347.432 718.138 347.608C718.026 347.768 717.818 347.952 717.514 348.16C717.114 348.432 716.642 348.656 716.098 348.832C715.57 349.008 715.018 349.112 714.442 349.144L714.346 350.056C714.538 350.008 714.746 349.984 714.97 349.984C715.466 349.984 715.882 350.12 716.218 350.392C716.57 350.68 716.746 351.096 716.746 351.64C716.746 352.232 716.498 352.712 716.002 353.08C715.506 353.448 714.81 353.632 713.914 353.632C713.338 353.632 712.794 353.536 712.282 353.344C712.154 353.296 712.05 353.216 711.97 353.104C711.906 353.008 711.874 352.904 711.874 352.792C711.874 352.648 711.922 352.52 712.018 352.408C712.114 352.312 712.242 352.264 712.402 352.264C712.482 352.264 712.546 352.272 712.594 352.288C713.026 352.416 713.474 352.48 713.938 352.48C714.386 352.48 714.722 352.408 714.946 352.264C715.186 352.12 715.306 351.912 715.306 351.64C715.306 351.432 715.242 351.272 715.114 351.16C714.986 351.048 714.802 350.992 714.562 350.992C714.386 350.992 714.162 351.024 713.89 351.088C713.618 351.168 713.45 351.208 713.386 351.208C713.258 351.208 713.138 351.16 713.026 351.064C712.93 350.984 712.89 350.88 712.906 350.752L713.098 349.12C711.69 348.912 710.562 348.28 709.714 347.224C708.882 346.152 708.466 344.792 708.466 343.144C708.466 341.944 708.698 340.88 709.162 339.952C709.642 339.024 710.306 338.304 711.154 337.792C712.002 337.28 712.978 337.024 714.082 337.024C714.69 337.024 715.29 337.112 715.882 337.288C716.49 337.448 717.018 337.688 717.466 338.008C717.754 338.2 717.954 338.392 718.066 338.584C718.194 338.76 718.258 338.96 718.258 339.184C718.258 339.408 718.194 339.592 718.066 339.736C717.954 339.88 717.802 339.952 717.61 339.952C717.498 339.952 717.378 339.92 717.25 339.856C717.122 339.792 717.01 339.728 716.914 339.664C716.834 339.6 716.778 339.56 716.746 339.544C716.33 339.272 715.93 339.056 715.546 338.896C715.178 338.736 714.722 338.656 714.178 338.656C713.01 338.656 712.098 339.056 711.442 339.856C710.802 340.64 710.482 341.736 710.482 343.144C710.482 344.552 710.802 345.64 711.442 346.408C712.098 347.176 713.01 347.56 714.178 347.56C714.722 347.56 715.186 347.48 715.57 347.32C715.97 347.16 716.37 346.944 716.77 346.672C716.946 346.56 717.114 346.464 717.274 346.384C717.434 346.304 717.57 346.264 717.682 346.264ZM725.422 337.024C728.35 337.024 729.814 338.56 729.814 341.632V348.16C729.814 348.448 729.726 348.68 729.55 348.856C729.39 349.032 729.166 349.12 728.878 349.12C728.59 349.12 728.358 349.032 728.182 348.856C728.006 348.68 727.918 348.448 727.918 348.16V347.008C727.614 347.696 727.15 348.232 726.526 348.616C725.902 348.984 725.182 349.168 724.366 349.168C723.614 349.168 722.918 349.016 722.278 348.712C721.654 348.408 721.158 347.984 720.79 347.44C720.422 346.896 720.238 346.296 720.238 345.64C720.238 344.76 720.462 344.08 720.91 343.6C721.358 343.104 722.094 342.752 723.118 342.544C724.142 342.32 725.566 342.208 727.39 342.208H727.918V341.416C727.918 340.456 727.718 339.752 727.318 339.304C726.934 338.856 726.302 338.632 725.422 338.632C724.334 338.632 723.23 338.928 722.11 339.52C721.678 339.792 721.374 339.928 721.198 339.928C721.006 339.928 720.846 339.856 720.718 339.712C720.59 339.568 720.526 339.384 720.526 339.16C720.526 338.936 720.59 338.744 720.718 338.584C720.862 338.408 721.086 338.232 721.39 338.056C721.95 337.736 722.582 337.488 723.286 337.312C724.006 337.12 724.718 337.024 725.422 337.024ZM724.63 347.632C725.59 347.632 726.374 347.312 726.982 346.672C727.606 346.016 727.918 345.176 727.918 344.152V343.456H727.486C726.078 343.456 725.006 343.52 724.27 343.648C723.534 343.76 723.006 343.96 722.686 344.248C722.382 344.52 722.23 344.928 722.23 345.472C722.23 346.096 722.454 346.616 722.902 347.032C723.366 347.432 723.942 347.632 724.63 347.632ZM737.309 349.168C736.573 349.168 735.869 349.08 735.197 348.904C734.541 348.728 733.957 348.48 733.445 348.16C733.157 347.968 732.949 347.792 732.821 347.632C732.709 347.456 732.653 347.248 732.653 347.008C732.653 346.8 732.709 346.632 732.821 346.504C732.949 346.36 733.109 346.288 733.301 346.288C733.493 346.288 733.773 346.408 734.141 346.648C734.621 346.936 735.093 347.168 735.557 347.344C736.037 347.504 736.629 347.584 737.333 347.584C738.197 347.584 738.869 347.432 739.349 347.128C739.829 346.824 740.069 346.384 740.069 345.808C740.069 345.456 739.981 345.176 739.805 344.968C739.629 344.744 739.325 344.552 738.893 344.392C738.461 344.216 737.829 344.04 736.997 343.864C735.589 343.56 734.581 343.152 733.973 342.64C733.365 342.128 733.061 341.432 733.061 340.552C733.061 339.864 733.253 339.256 733.637 338.728C734.021 338.2 734.549 337.784 735.221 337.48C735.909 337.176 736.685 337.024 737.549 337.024C738.173 337.024 738.773 337.112 739.349 337.288C739.941 337.448 740.461 337.68 740.909 337.984C741.453 338.368 741.725 338.768 741.725 339.184C741.725 339.392 741.661 339.568 741.533 339.712C741.405 339.856 741.253 339.928 741.077 339.928C740.885 339.928 740.597 339.792 740.213 339.52C739.765 339.232 739.341 339.008 738.941 338.848C738.541 338.688 738.045 338.608 737.453 338.608C736.701 338.608 736.093 338.776 735.629 339.112C735.181 339.448 734.957 339.896 734.957 340.456C734.957 340.808 735.037 341.096 735.197 341.32C735.373 341.528 735.653 341.72 736.037 341.896C736.437 342.056 737.005 342.216 737.741 342.376C738.829 342.616 739.669 342.88 740.261 343.168C740.869 343.456 741.301 343.808 741.557 344.224C741.813 344.64 741.941 345.168 741.941 345.808C741.941 346.816 741.517 347.632 740.669 348.256C739.821 348.864 738.701 349.168 737.309 349.168ZM745.747 349.12C745.363 349.12 745.043 349 744.787 348.76C744.531 348.504 744.403 348.176 744.403 347.776C744.403 347.376 744.531 347.048 744.787 346.792C745.043 346.536 745.363 346.408 745.747 346.408C746.115 346.408 746.419 346.536 746.659 346.792C746.915 347.048 747.043 347.376 747.043 347.776C747.043 348.176 746.915 348.504 746.659 348.76C746.419 349 746.115 349.12 745.747 349.12Z" fill="white"/>
<path d="M172.973 311C171.853 311 170.989 310.696 170.381 310.088C169.773 309.48 169.469 308.616 169.469 307.496V280.616C169.469 279.496 169.805 278.6 170.477 277.928C171.149 277.256 172.061 276.92 173.213 276.92C174.365 276.92 175.277 277.256 175.949 277.928C176.621 278.6 176.957 279.496 176.957 280.616V304.904H189.245C191.581 304.904 192.749 305.928 192.749 307.976C192.749 309.992 191.581 311 189.245 311H172.973ZM214.618 303.992C215.258 303.992 215.77 304.248 216.154 304.76C216.57 305.272 216.778 305.928 216.778 306.728C216.778 307.272 216.618 307.784 216.298 308.264C215.978 308.712 215.53 309.096 214.954 309.416C213.866 309.992 212.602 310.472 211.162 310.856C209.722 311.208 208.394 311.384 207.178 311.384C204.618 311.384 202.378 310.888 200.458 309.896C198.57 308.904 197.114 307.496 196.09 305.672C195.066 303.816 194.554 301.64 194.554 299.144C194.554 296.744 195.05 294.616 196.042 292.76C197.034 290.904 198.41 289.464 200.17 288.44C201.93 287.384 203.93 286.856 206.17 286.856C208.314 286.856 210.186 287.336 211.786 288.296C213.418 289.224 214.682 290.568 215.578 292.328C216.474 294.056 216.922 296.088 216.922 298.424C216.922 299.128 216.746 299.672 216.394 300.056C216.074 300.408 215.61 300.584 215.002 300.584H201.562C201.786 302.472 202.362 303.848 203.29 304.712C204.218 305.544 205.546 305.96 207.274 305.96C208.202 305.96 209.034 305.848 209.77 305.624C210.506 305.4 211.322 305.096 212.218 304.712C212.666 304.52 213.098 304.36 213.514 304.232C213.93 304.072 214.298 303.992 214.618 303.992ZM206.362 291.848C204.986 291.848 203.882 292.296 203.05 293.192C202.218 294.056 201.722 295.32 201.562 296.984H210.826C210.73 295.288 210.298 294.008 209.53 293.144C208.794 292.28 207.738 291.848 206.362 291.848ZM236.911 289.016C237.231 288.344 237.647 287.848 238.159 287.528C238.703 287.176 239.279 287 239.887 287C240.783 287 241.583 287.304 242.287 287.912C242.991 288.488 243.343 289.192 243.343 290.024C243.343 290.504 243.231 290.968 243.007 291.416L234.367 309.128C234.047 309.832 233.567 310.376 232.927 310.76C232.287 311.112 231.599 311.288 230.863 311.288C230.127 311.288 229.439 311.112 228.799 310.76C228.159 310.376 227.663 309.832 227.311 309.128L218.671 291.416C218.479 290.968 218.383 290.536 218.383 290.12C218.383 289.256 218.751 288.52 219.487 287.912C220.255 287.304 221.103 287 222.031 287C222.703 287 223.311 287.176 223.855 287.528C224.399 287.848 224.831 288.344 225.151 289.016L231.055 301.928L236.911 289.016ZM264.915 303.992C265.555 303.992 266.067 304.248 266.451 304.76C266.867 305.272 267.075 305.928 267.075 306.728C267.075 307.272 266.915 307.784 266.595 308.264C266.275 308.712 265.827 309.096 265.251 309.416C264.163 309.992 262.899 310.472 261.459 310.856C260.019 311.208 258.691 311.384 257.475 311.384C254.915 311.384 252.675 310.888 250.755 309.896C248.867 308.904 247.411 307.496 246.387 305.672C245.363 303.816 244.851 301.64 244.851 299.144C244.851 296.744 245.347 294.616 246.339 292.76C247.331 290.904 248.707 289.464 250.467 288.44C252.227 287.384 254.227 286.856 256.467 286.856C258.611 286.856 260.483 287.336 262.083 288.296C263.715 289.224 264.979 290.568 265.875 292.328C266.771 294.056 267.219 296.088 267.219 298.424C267.219 299.128 267.043 299.672 266.691 300.056C266.371 300.408 265.907 300.584 265.299 300.584H251.859C252.083 302.472 252.659 303.848 253.587 304.712C254.515 305.544 255.843 305.96 257.571 305.96C258.499 305.96 259.331 305.848 260.067 305.624C260.803 305.4 261.619 305.096 262.515 304.712C262.963 304.52 263.395 304.36 263.811 304.232C264.227 304.072 264.595 303.992 264.915 303.992ZM256.659 291.848C255.283 291.848 254.179 292.296 253.347 293.192C252.515 294.056 252.019 295.32 251.859 296.984H261.123C261.027 295.288 260.595 294.008 259.827 293.144C259.091 292.28 258.035 291.848 256.659 291.848ZM297.819 282.44C296.507 282.536 295.563 282.936 294.987 283.64C294.411 284.344 294.123 285.336 294.123 286.616V287.432H297.483C299.659 287.432 300.747 288.344 300.747 290.168C300.747 291.96 299.659 292.856 297.483 292.856H294.123V307.832C294.123 308.952 293.771 309.8 293.067 310.376C292.395 310.952 291.547 311.24 290.523 311.24C289.467 311.24 288.587 310.952 287.883 310.376C287.211 309.8 286.875 308.952 286.875 307.832V292.856H284.955C282.811 292.856 281.739 291.96 281.739 290.168C281.739 288.344 282.811 287.432 284.955 287.432H286.875C286.875 284.36 287.723 281.944 289.419 280.184C291.115 278.424 293.451 277.432 296.427 277.208L297.675 277.112L298.539 277.064C300.747 277.064 301.851 277.912 301.851 279.608C301.851 281.272 300.923 282.184 299.067 282.344L297.819 282.44ZM321.727 303.992C322.367 303.992 322.879 304.248 323.263 304.76C323.679 305.272 323.887 305.928 323.887 306.728C323.887 307.272 323.727 307.784 323.407 308.264C323.087 308.712 322.639 309.096 322.063 309.416C320.975 309.992 319.711 310.472 318.271 310.856C316.831 311.208 315.503 311.384 314.287 311.384C311.727 311.384 309.487 310.888 307.567 309.896C305.679 308.904 304.223 307.496 303.199 305.672C302.175 303.816 301.663 301.64 301.663 299.144C301.663 296.744 302.159 294.616 303.151 292.76C304.143 290.904 305.519 289.464 307.279 288.44C309.039 287.384 311.039 286.856 313.279 286.856C315.423 286.856 317.295 287.336 318.895 288.296C320.527 289.224 321.791 290.568 322.687 292.328C323.583 294.056 324.031 296.088 324.031 298.424C324.031 299.128 323.855 299.672 323.503 300.056C323.183 300.408 322.719 300.584 322.111 300.584H308.671C308.895 302.472 309.471 303.848 310.399 304.712C311.327 305.544 312.655 305.96 314.383 305.96C315.311 305.96 316.143 305.848 316.879 305.624C317.615 305.4 318.431 305.096 319.327 304.712C319.775 304.52 320.207 304.36 320.623 304.232C321.039 304.072 321.407 303.992 321.727 303.992ZM313.471 291.848C312.095 291.848 310.991 292.296 310.159 293.192C309.327 294.056 308.831 295.32 308.671 296.984H317.935C317.839 295.288 317.407 294.008 316.639 293.144C315.903 292.28 314.847 291.848 313.471 291.848ZM332.057 311.288C331.001 311.288 330.121 311 329.417 310.424C328.745 309.848 328.409 309 328.409 307.88V280.328C328.409 279.208 328.745 278.36 329.417 277.784C330.121 277.208 331.001 276.92 332.057 276.92C333.081 276.92 333.929 277.208 334.601 277.784C335.305 278.36 335.657 279.208 335.657 280.328V307.88C335.657 309 335.305 309.848 334.601 310.424C333.929 311 333.081 311.288 332.057 311.288ZM344.854 311.288C343.798 311.288 342.918 311 342.214 310.424C341.542 309.848 341.206 309 341.206 307.88V290.36C341.206 289.24 341.558 288.392 342.262 287.816C342.966 287.24 343.83 286.952 344.854 286.952C345.878 286.952 346.726 287.24 347.398 287.816C348.102 288.392 348.454 289.24 348.454 290.36V307.88C348.454 309 348.102 309.848 347.398 310.424C346.726 311 345.878 311.288 344.854 311.288ZM344.854 283.112C343.574 283.112 342.566 282.792 341.83 282.152C341.094 281.48 340.726 280.584 340.726 279.464C340.726 278.344 341.094 277.464 341.83 276.824C342.566 276.184 343.574 275.864 344.854 275.864C346.102 275.864 347.094 276.2 347.83 276.872C348.598 277.512 348.982 278.376 348.982 279.464C348.982 280.584 348.614 281.48 347.878 282.152C347.142 282.792 346.134 283.112 344.854 283.112ZM364.899 311.384C362.467 311.384 360.339 310.888 358.515 309.896C356.691 308.904 355.283 307.496 354.291 305.672C353.331 303.848 352.851 301.704 352.851 299.24C352.851 296.776 353.363 294.616 354.387 292.76C355.443 290.872 356.915 289.416 358.803 288.392C360.691 287.368 362.867 286.856 365.331 286.856C366.611 286.856 367.891 287.032 369.171 287.384C370.483 287.736 371.651 288.232 372.675 288.872C373.667 289.48 374.163 290.376 374.163 291.56C374.163 292.392 373.971 293.08 373.587 293.624C373.203 294.136 372.691 294.392 372.051 294.392C371.635 294.392 371.235 294.328 370.851 294.2C370.499 294.04 370.019 293.816 369.411 293.528C368.739 293.176 368.131 292.904 367.587 292.712C367.075 292.52 366.483 292.424 365.811 292.424C364.019 292.424 362.643 293 361.683 294.152C360.755 295.272 360.291 296.92 360.291 299.096C360.291 301.272 360.755 302.936 361.683 304.088C362.643 305.24 364.019 305.816 365.811 305.816C366.483 305.816 367.075 305.736 367.587 305.576C368.099 305.384 368.723 305.096 369.459 304.712C370.067 304.424 370.547 304.216 370.899 304.088C371.251 303.928 371.635 303.848 372.051 303.848C372.659 303.848 373.155 304.12 373.539 304.664C373.955 305.208 374.163 305.896 374.163 306.728C374.163 307.912 373.667 308.792 372.675 309.368C371.651 310.008 370.467 310.504 369.123 310.856C367.779 311.208 366.371 311.384 364.899 311.384ZM381.37 311.288C380.314 311.288 379.434 311 378.73 310.424C378.058 309.848 377.722 309 377.722 307.88V290.36C377.722 289.24 378.074 288.392 378.778 287.816C379.482 287.24 380.346 286.952 381.37 286.952C382.394 286.952 383.242 287.24 383.914 287.816C384.618 288.392 384.97 289.24 384.97 290.36V307.88C384.97 309 384.618 309.848 383.914 310.424C383.242 311 382.394 311.288 381.37 311.288ZM381.37 283.112C380.09 283.112 379.082 282.792 378.346 282.152C377.61 281.48 377.242 280.584 377.242 279.464C377.242 278.344 377.61 277.464 378.346 276.824C379.082 276.184 380.09 275.864 381.37 275.864C382.618 275.864 383.61 276.2 384.346 276.872C385.114 277.512 385.498 278.376 385.498 279.464C385.498 280.584 385.13 281.48 384.394 282.152C383.658 282.792 382.65 283.112 381.37 283.112ZM410.63 276.92C411.75 276.92 412.646 277.224 413.318 277.832C414.022 278.44 414.374 279.24 414.374 280.232V307.88C414.374 308.904 414.038 309.736 413.366 310.376C412.726 310.984 411.862 311.288 410.774 311.288C409.686 311.288 408.806 310.984 408.134 310.376C407.494 309.736 407.174 308.904 407.174 307.88V307.496C406.47 308.712 405.462 309.672 404.15 310.376C402.87 311.048 401.414 311.384 399.782 311.384C397.766 311.384 395.958 310.872 394.358 309.848C392.79 308.792 391.558 307.336 390.662 305.48C389.798 303.592 389.366 301.432 389.366 299C389.366 296.568 389.798 294.44 390.662 292.616C391.558 290.76 392.79 289.336 394.358 288.344C395.926 287.352 397.734 286.856 399.782 286.856C401.382 286.856 402.822 287.192 404.102 287.864C405.414 288.536 406.422 289.48 407.126 290.696V280.088C407.126 279.128 407.446 278.36 408.086 277.784C408.726 277.208 409.574 276.92 410.63 276.92ZM401.894 305.864C403.59 305.864 404.886 305.288 405.782 304.136C406.71 302.952 407.174 301.272 407.174 299.096C407.174 296.92 406.71 295.256 405.782 294.104C404.886 292.952 403.59 292.376 401.894 292.376C400.198 292.376 398.886 292.952 397.958 294.104C397.03 295.224 396.566 296.856 396.566 299C396.566 301.176 397.03 302.872 397.958 304.088C398.886 305.272 400.198 305.864 401.894 305.864ZM430.564 286.856C434.02 286.856 436.58 287.704 438.244 289.4C439.908 291.064 440.74 293.624 440.74 297.08V307.928C440.74 308.984 440.436 309.816 439.828 310.424C439.22 311 438.372 311.288 437.284 311.288C436.26 311.288 435.428 310.984 434.788 310.376C434.18 309.736 433.876 308.92 433.876 307.928V307.592C433.396 308.776 432.596 309.704 431.476 310.376C430.356 311.048 429.044 311.384 427.54 311.384C425.94 311.384 424.484 311.064 423.172 310.424C421.892 309.784 420.868 308.888 420.1 307.736C419.364 306.584 418.996 305.304 418.996 303.896C418.996 302.168 419.428 300.808 420.292 299.816C421.188 298.824 422.612 298.104 424.564 297.656C426.516 297.208 429.188 296.984 432.58 296.984H433.828V296.12C433.828 294.776 433.524 293.8 432.916 293.192C432.34 292.584 431.364 292.28 429.988 292.28C428.612 292.28 426.628 292.76 424.036 293.72C423.3 294.072 422.676 294.248 422.164 294.248C421.46 294.248 420.9 294.008 420.484 293.528C420.068 293.016 419.86 292.36 419.86 291.56C419.86 290.92 420.004 290.392 420.292 289.976C420.58 289.56 421.044 289.176 421.684 288.824C422.804 288.216 424.164 287.736 425.764 287.384C427.396 287.032 428.996 286.856 430.564 286.856ZM429.124 306.392C430.532 306.392 431.668 305.928 432.532 305C433.396 304.04 433.828 302.808 433.828 301.304V300.488H433.012C430.42 300.488 428.596 300.696 427.54 301.112C426.516 301.528 426.004 302.28 426.004 303.368C426.004 304.264 426.292 305 426.868 305.576C427.476 306.12 428.228 306.392 429.124 306.392ZM466.271 276.92C467.391 276.92 468.287 277.224 468.959 277.832C469.663 278.44 470.015 279.24 470.015 280.232V307.88C470.015 308.904 469.679 309.736 469.007 310.376C468.367 310.984 467.503 311.288 466.415 311.288C465.327 311.288 464.447 310.984 463.775 310.376C463.135 309.736 462.815 308.904 462.815 307.88V307.496C462.111 308.712 461.103 309.672 459.791 310.376C458.511 311.048 457.055 311.384 455.423 311.384C453.407 311.384 451.599 310.872 449.999 309.848C448.431 308.792 447.199 307.336 446.303 305.48C445.439 303.592 445.007 301.432 445.007 299C445.007 296.568 445.439 294.44 446.303 292.616C447.199 290.76 448.431 289.336 449.999 288.344C451.567 287.352 453.375 286.856 455.423 286.856C457.023 286.856 458.463 287.192 459.743 287.864C461.055 288.536 462.063 289.48 462.767 290.696V280.088C462.767 279.128 463.087 278.36 463.727 277.784C464.367 277.208 465.215 276.92 466.271 276.92ZM457.535 305.864C459.231 305.864 460.527 305.288 461.423 304.136C462.351 302.952 462.815 301.272 462.815 299.096C462.815 296.92 462.351 295.256 461.423 294.104C460.527 292.952 459.231 292.376 457.535 292.376C455.839 292.376 454.527 292.952 453.599 294.104C452.671 295.224 452.207 296.856 452.207 299C452.207 301.176 452.671 302.872 453.599 304.088C454.527 305.272 455.839 305.864 457.535 305.864ZM494.509 303.992C495.149 303.992 495.661 304.248 496.045 304.76C496.461 305.272 496.669 305.928 496.669 306.728C496.669 307.272 496.509 307.784 496.189 308.264C495.869 308.712 495.421 309.096 494.845 309.416C493.757 309.992 492.493 310.472 491.053 310.856C489.613 311.208 488.285 311.384 487.069 311.384C484.509 311.384 482.269 310.888 480.349 309.896C478.461 308.904 477.005 307.496 475.98 305.672C474.957 303.816 474.445 301.64 474.445 299.144C474.445 296.744 474.941 294.616 475.933 292.76C476.925 290.904 478.301 289.464 480.061 288.44C481.821 287.384 483.821 286.856 486.061 286.856C488.205 286.856 490.077 287.336 491.677 288.296C493.309 289.224 494.573 290.568 495.469 292.328C496.365 294.056 496.812 296.088 496.812 298.424C496.812 299.128 496.637 299.672 496.285 300.056C495.965 300.408 495.501 300.584 494.893 300.584H481.453C481.677 302.472 482.253 303.848 483.181 304.712C484.109 305.544 485.437 305.96 487.165 305.96C488.093 305.96 488.925 305.848 489.661 305.624C490.397 305.4 491.213 305.096 492.109 304.712C492.557 304.52 492.989 304.36 493.405 304.232C493.821 304.072 494.189 303.992 494.509 303.992ZM486.253 291.848C484.877 291.848 483.773 292.296 482.941 293.192C482.109 294.056 481.613 295.32 481.453 296.984H490.717C490.621 295.288 490.189 294.008 489.421 293.144C488.685 292.28 487.629 291.848 486.253 291.848ZM529.189 286.856C531.205 286.856 532.997 287.384 534.565 288.44C536.165 289.464 537.397 290.92 538.26 292.808C539.157 294.664 539.605 296.808 539.605 299.24C539.605 301.672 539.157 303.816 538.26 305.672C537.397 307.496 536.181 308.904 534.613 309.896C533.045 310.888 531.237 311.384 529.189 311.384C527.589 311.384 526.133 311.064 524.821 310.424C523.541 309.752 522.549 308.824 521.845 307.64V316.712C521.845 317.672 521.525 318.44 520.885 319.016C520.245 319.592 519.397 319.88 518.341 319.88C517.221 319.88 516.309 319.576 515.605 318.968C514.933 318.36 514.597 317.56 514.597 316.568V290.36C514.597 289.336 514.917 288.52 515.557 287.912C516.229 287.272 517.109 286.952 518.197 286.952C519.285 286.952 520.149 287.272 520.789 287.912C521.429 288.52 521.749 289.336 521.749 290.36V290.744C522.453 289.528 523.461 288.584 524.773 287.912C526.085 287.208 527.557 286.856 529.189 286.856ZM527.077 305.864C528.773 305.864 530.085 305.304 531.013 304.184C531.941 303.032 532.405 301.384 532.405 299.24C532.405 297.064 531.941 295.384 531.013 294.2C530.085 292.984 528.773 292.376 527.077 292.376C525.381 292.376 524.069 292.968 523.141 294.152C522.213 295.304 521.749 296.968 521.749 299.144C521.749 301.288 522.213 302.952 523.141 304.136C524.069 305.288 525.381 305.864 527.077 305.864ZM554.642 286.856C558.098 286.856 560.658 287.704 562.322 289.4C563.986 291.064 564.818 293.624 564.818 297.08V307.928C564.818 308.984 564.514 309.816 563.906 310.424C563.298 311 562.45 311.288 561.362 311.288C560.338 311.288 559.506 310.984 558.866 310.376C558.258 309.736 557.954 308.92 557.954 307.928V307.592C557.474 308.776 556.674 309.704 555.554 310.376C554.434 311.048 553.122 311.384 551.618 311.384C550.018 311.384 548.562 311.064 547.25 310.424C545.97 309.784 544.946 308.888 544.178 307.736C543.442 306.584 543.074 305.304 543.074 303.896C543.074 302.168 543.506 300.808 544.37 299.816C545.266 298.824 546.69 298.104 548.642 297.656C550.594 297.208 553.266 296.984 556.658 296.984H557.906V296.12C557.906 294.776 557.602 293.8 556.994 293.192C556.418 292.584 555.442 292.28 554.066 292.28C552.69 292.28 550.706 292.76 548.114 293.72C547.378 294.072 546.754 294.248 546.242 294.248C545.538 294.248 544.978 294.008 544.562 293.528C544.146 293.016 543.938 292.36 543.938 291.56C543.938 290.92 544.082 290.392 544.37 289.976C544.658 289.56 545.122 289.176 545.762 288.824C546.882 288.216 548.242 287.736 549.842 287.384C551.474 287.032 553.074 286.856 554.642 286.856ZM553.202 306.392C554.61 306.392 555.746 305.928 556.61 305C557.474 304.04 557.906 302.808 557.906 301.304V300.488H557.09C554.498 300.488 552.674 300.696 551.618 301.112C550.594 301.528 550.082 302.28 550.082 303.368C550.082 304.264 550.37 305 550.946 305.576C551.554 306.12 552.306 306.392 553.202 306.392ZM584.301 286.952C585.261 286.888 586.013 287.112 586.557 287.624C587.133 288.104 587.421 288.84 587.421 289.832C587.421 290.888 587.165 291.672 586.653 292.184C586.141 292.696 585.229 293.016 583.917 293.144L582.477 293.288C580.717 293.48 579.437 294.056 578.637 295.016C577.869 295.976 577.485 297.208 577.485 298.712V307.88C577.485 309 577.133 309.848 576.429 310.424C575.757 311 574.909 311.288 573.885 311.288C572.829 311.288 571.949 311 571.245 310.424C570.573 309.848 570.237 309 570.237 307.88V290.264C570.237 289.208 570.589 288.392 571.293 287.816C571.997 287.24 572.845 286.952 573.837 286.952C574.797 286.952 575.597 287.24 576.237 287.816C576.877 288.36 577.197 289.128 577.197 290.12V291.416C577.773 290.04 578.637 288.984 579.789 288.248C580.973 287.512 582.253 287.096 583.629 287L584.301 286.952ZM600.111 286.856C603.567 286.856 606.127 287.704 607.791 289.4C609.455 291.064 610.287 293.624 610.287 297.08V307.928C610.287 308.984 609.983 309.816 609.375 310.424C608.767 311 607.919 311.288 606.831 311.288C605.807 311.288 604.975 310.984 604.335 310.376C603.727 309.736 603.423 308.92 603.423 307.928V307.592C602.943 308.776 602.143 309.704 601.023 310.376C599.903 311.048 598.591 311.384 597.087 311.384C595.487 311.384 594.031 311.064 592.719 310.424C591.439 309.784 590.415 308.888 589.647 307.736C588.911 306.584 588.543 305.304 588.543 303.896C588.543 302.168 588.975 300.808 589.839 299.816C590.735 298.824 592.159 298.104 594.111 297.656C596.063 297.208 598.735 296.984 602.127 296.984H603.375V296.12C603.375 294.776 603.071 293.8 602.463 293.192C601.887 292.584 600.911 292.28 599.535 292.28C598.159 292.28 596.175 292.76 593.583 293.72C592.847 294.072 592.223 294.248 591.711 294.248C591.007 294.248 590.447 294.008 590.031 293.528C589.615 293.016 589.407 292.36 589.407 291.56C589.407 290.92 589.551 290.392 589.839 289.976C590.127 289.56 590.591 289.176 591.231 288.824C592.351 288.216 593.711 287.736 595.311 287.384C596.943 287.032 598.543 286.856 600.111 286.856ZM598.671 306.392C600.079 306.392 601.215 305.928 602.079 305C602.943 304.04 603.375 302.808 603.375 301.304V300.488H602.559C599.967 300.488 598.143 300.696 597.087 301.112C596.063 301.528 595.551 302.28 595.551 303.368C595.551 304.264 595.839 305 596.415 305.576C597.023 306.12 597.775 306.392 598.671 306.392ZM640.44 311.384C637.944 311.384 635.752 310.888 633.864 309.896C631.976 308.872 630.52 307.448 629.496 305.624C628.472 303.768 627.96 301.592 627.96 299.096C627.96 296.6 628.472 294.44 629.496 292.616C630.52 290.76 631.976 289.336 633.864 288.344C635.752 287.352 637.944 286.856 640.44 286.856C642.936 286.856 645.128 287.352 647.016 288.344C648.904 289.336 650.36 290.76 651.384 292.616C652.408 294.44 652.92 296.6 652.92 299.096C652.92 301.592 652.408 303.768 651.384 305.624C650.36 307.448 648.904 308.872 647.016 309.896C645.128 310.888 642.936 311.384 640.44 311.384ZM640.44 305.864C643.96 305.864 645.72 303.608 645.72 299.096C645.72 296.824 645.256 295.128 644.328 294.008C643.432 292.888 642.136 292.328 640.44 292.328C636.92 292.328 635.16 294.584 635.16 299.096C635.16 303.608 636.92 305.864 640.44 305.864ZM699.777 286.856C702.337 286.856 704.305 287.64 705.681 289.208C707.057 290.744 707.745 293.272 707.745 296.792V307.88C707.745 309 707.409 309.848 706.737 310.424C706.065 311 705.201 311.288 704.145 311.288C703.121 311.288 702.257 311 701.553 310.424C700.849 309.848 700.497 309 700.497 307.88V296.696C700.497 295.16 700.225 294.088 699.681 293.48C699.169 292.84 698.369 292.52 697.281 292.52C695.937 292.52 694.865 292.984 694.065 293.912C693.265 294.84 692.865 296.136 692.865 297.8V307.88C692.865 309 692.529 309.848 691.857 310.424C691.185 311 690.321 311.288 689.265 311.288C688.241 311.288 687.377 311 686.673 310.424C685.969 309.848 685.617 309 685.617 307.88V296.696C685.617 295.16 685.345 294.088 684.801 293.48C684.289 292.84 683.489 292.52 682.401 292.52C681.057 292.52 679.985 292.984 679.185 293.912C678.385 294.84 677.985 296.136 677.985 297.8V307.88C677.985 309 677.633 309.848 676.929 310.424C676.257 311 675.409 311.288 674.385 311.288C673.361 311.288 672.497 311 671.793 310.424C671.089 309.848 670.737 309 670.737 307.88V290.264C670.737 289.208 671.089 288.392 671.793 287.816C672.529 287.24 673.409 286.952 674.433 286.952C675.393 286.952 676.193 287.24 676.833 287.816C677.473 288.36 677.793 289.128 677.793 290.12V290.6C678.561 289.384 679.553 288.456 680.769 287.816C682.017 287.176 683.425 286.856 684.993 286.856C686.689 286.856 688.113 287.208 689.265 287.912C690.449 288.584 691.361 289.688 692.001 291.224C692.737 289.88 693.777 288.824 695.121 288.056C696.497 287.256 698.049 286.856 699.777 286.856ZM732.262 286.952C733.382 286.952 734.262 287.256 734.902 287.864C735.574 288.472 735.91 289.304 735.91 290.36V307.976C735.91 308.968 735.558 309.768 734.854 310.376C734.182 310.984 733.302 311.288 732.214 311.288C731.19 311.288 730.374 311 729.766 310.424C729.158 309.848 728.854 309.08 728.854 308.12V307.64C728.118 308.856 727.142 309.784 725.926 310.424C724.742 311.064 723.398 311.384 721.894 311.384C718.918 311.384 716.694 310.568 715.222 308.936C713.782 307.272 713.062 304.776 713.062 301.448V290.36C713.062 289.304 713.382 288.472 714.022 287.864C714.694 287.256 715.59 286.952 716.71 286.952C717.83 286.952 718.71 287.256 719.35 287.864C719.99 288.472 720.31 289.304 720.31 290.36V301.592C720.31 303 720.598 304.04 721.174 304.712C721.782 305.384 722.694 305.72 723.91 305.72C725.318 305.72 726.454 305.24 727.318 304.28C728.214 303.32 728.662 302.056 728.662 300.488V290.36C728.662 289.304 728.982 288.472 729.622 287.864C730.262 287.256 731.142 286.952 732.262 286.952ZM756.256 286.856C759.072 286.856 761.168 287.688 762.544 289.352C763.92 290.984 764.608 293.464 764.608 296.792V307.88C764.608 308.936 764.272 309.768 763.6 310.376C762.96 310.984 762.08 311.288 760.96 311.288C759.84 311.288 758.96 310.984 758.32 310.376C757.68 309.768 757.36 308.936 757.36 307.88V297.128C757.36 295.528 757.056 294.36 756.448 293.624C755.872 292.888 754.96 292.52 753.712 292.52C752.208 292.52 750.992 293 750.064 293.96C749.168 294.92 748.72 296.2 748.72 297.8V307.88C748.72 308.936 748.4 309.768 747.76 310.376C747.12 310.984 746.24 311.288 745.12 311.288C744 311.288 743.104 310.984 742.432 310.376C741.792 309.768 741.472 308.936 741.472 307.88V290.264C741.472 289.272 741.808 288.472 742.48 287.864C743.184 287.256 744.08 286.952 745.168 286.952C746.16 286.952 746.96 287.256 747.568 287.864C748.208 288.44 748.528 289.192 748.528 290.12V290.792C749.36 289.512 750.432 288.536 751.744 287.864C753.088 287.192 754.592 286.856 756.256 286.856ZM790.13 276.92C791.25 276.92 792.146 277.224 792.818 277.832C793.522 278.44 793.874 279.24 793.874 280.232V307.88C793.874 308.904 793.538 309.736 792.866 310.376C792.226 310.984 791.362 311.288 790.274 311.288C789.186 311.288 788.306 310.984 787.634 310.376C786.994 309.736 786.674 308.904 786.674 307.88V307.496C785.97 308.712 784.962 309.672 783.65 310.376C782.37 311.048 780.914 311.384 779.282 311.384C777.266 311.384 775.458 310.872 773.858 309.848C772.29 308.792 771.058 307.336 770.162 305.48C769.298 303.592 768.866 301.432 768.866 299C768.866 296.568 769.298 294.44 770.162 292.616C771.058 290.76 772.29 289.336 773.858 288.344C775.426 287.352 777.234 286.856 779.282 286.856C780.882 286.856 782.322 287.192 783.602 287.864C784.914 288.536 785.922 289.48 786.626 290.696V280.088C786.626 279.128 786.946 278.36 787.586 277.784C788.226 277.208 789.074 276.92 790.13 276.92ZM781.394 305.864C783.09 305.864 784.386 305.288 785.282 304.136C786.21 302.952 786.674 301.272 786.674 299.096C786.674 296.92 786.21 295.256 785.282 294.104C784.386 292.952 783.09 292.376 781.394 292.376C779.698 292.376 778.386 292.952 777.458 294.104C776.53 295.224 776.066 296.856 776.066 299C776.066 301.176 776.53 302.872 777.458 304.088C778.386 305.272 779.698 305.864 781.394 305.864ZM810.784 311.384C808.288 311.384 806.096 310.888 804.208 309.896C802.32 308.872 800.864 307.448 799.84 305.624C798.816 303.768 798.304 301.592 798.304 299.096C798.304 296.6 798.816 294.44 799.84 292.616C800.864 290.76 802.32 289.336 804.208 288.344C806.096 287.352 808.288 286.856 810.784 286.856C813.28 286.856 815.472 287.352 817.36 288.344C819.248 289.336 820.704 290.76 821.728 292.616C822.752 294.44 823.264 296.6 823.264 299.096C823.264 301.592 822.752 303.768 821.728 305.624C820.704 307.448 819.248 308.872 817.36 309.896C815.472 310.888 813.28 311.384 810.784 311.384ZM810.784 305.864C814.304 305.864 816.064 303.608 816.064 299.096C816.064 296.824 815.6 295.128 814.672 294.008C813.776 292.888 812.48 292.328 810.784 292.328C807.264 292.328 805.504 294.584 805.504 299.096C805.504 303.608 807.264 305.864 810.784 305.864Z" fill="white"/>
<defs>
<linearGradient id="paint0_linear" x1="999.564" y1="381.417" x2="100.357" y2="-142.394" gradientUnits="userSpaceOnUse">
<stop stop-color="#29B6D1"/>
<stop offset="1" stop-color="#00C7C7"/>
</linearGradient>
</defs>
</svg>
